<?xml version="1.0" encoding="utf-8"?>
<!-- Generator: Adobe Illustrator 22.1.0, SVG Export Plug-In . SVG Version: 6.00 Build 0)  -->
<svg version="1.1" xmlns="http://www.w3.org/2000/svg" xmlns:xlink="http://www.w3.org/1999/xlink" x="0px" y="0px"
	 viewBox="0 0 2272 1872" style="enable-background:new 0 0 2272 1872;" xml:space="preserve">
<style type="text/css">
	.st0{fill:#FFFFFF;}
	.st1{fill:#FFEECB;}
	.st2{fill:#E8CDA6;}
	.st3{fill:#F4DCB3;}
	.st4{fill:#E8CDA0;}
	.st5{fill:#D4F7FF;}
	.st6{fill:#D5D3EA;}
	.st7{fill:#8E8DAA;}
	.st8{fill:#2F6F77;}
	.st9{fill:#4DA8BB;}
	.st10{fill:#2D3E51;}
	.st11{fill:#A8424C;}
	.st12{fill:#EF7C2E;}
	.st13{fill:#FEC83D;}
	.st14{fill:#6EDBEA;}
	.st15{fill:#FF777F;}
	.st16{fill:#8681BD;}
	.st17{fill:#585689;}
	.st18{fill:#A4D38F;}
	.st19{fill:#C5F7AA;}
	.st20{fill:#7BA367;}
	.st21{fill:#87522D;}
	.st22{fill:none;}
	.st23{fill:#EC5B44;}
	.st24{fill:#EF5EA2;}
	.st25{fill:#B23B77;}
	.st26{fill:#FFA4D2;}
	.st27{fill:#440235;}
</style>
<g id="Background">
	<g id="Layer_1_1_">
	</g>
	<g id="Layer_2">
	</g>
	<g id="Layer_1_2_">
	</g>
	<g id="Layer_2_1_">
	</g>
</g>
<g id="object">
	<g>
		<g>
			<rect x="0" class="st0" width="2272" height="1872"/>
		</g>
	</g>
	<g>
		<path class="st1" d="M1057.3,1331.9c-258,40.5-524.7,63.6-778.2,0.7c-32.3-8-65.8-18.3-89.4-41.8c-25.9-25.8-35.7-63.2-43.5-98.9
			c-41.1-186.2-58.2-377.6-50.8-568.2c1.2-30.5,3.1-61.6,15.1-89.7c28.9-67.6,106.1-98.7,177-118c194.9-53.2,397.8-68.8,599.3-81.7
			c151.1-9.7,302.3-18.1,453.6-25.2c203.3-9.5,408.4-16.5,609.3,15.9c54.6,8.8,114.7,24.4,144.4,71c14.3,22.4,19.6,49.3,23.9,75.5
			c39.3,237.2,26.5,482.9-37.3,714.8c-3.3,12-7,24.4-15.4,33.5c-11.1,12.1-28.4,16.1-44.6,18.5c-72.3,10.7-139.5-12.6-210.1-8.9
			c-83.9,4.4-167.2,10.3-250.7,21C1391.5,1272.2,1225,1305.6,1057.3,1331.9z"/>
		<g>
			<g>
				<rect x="416.9" y="963.4" class="st2" width="109.4" height="148.9"/>
				<rect x="383.8" y="963.4" class="st3" width="109.4" height="148.9"/>
				<rect x="395.8" y="989.8" class="st2" width="84.7" height="54.1"/>
			</g>
			<g>
				<rect x="658.7" y="963.4" class="st2" width="109.4" height="148.9"/>
				<rect x="625.6" y="963.4" class="st3" width="109.4" height="148.9"/>
				<rect x="637.6" y="989.8" class="st2" width="84.7" height="54.1"/>
			</g>
			<g>
				<rect x="917" y="963.4" class="st2" width="109.4" height="148.9"/>
				<rect x="883.9" y="963.4" class="st3" width="109.4" height="148.9"/>
				<rect x="895.9" y="989.8" class="st2" width="84.7" height="54.1"/>
			</g>
			<g>
				<rect x="1175.3" y="963.4" class="st2" width="109.4" height="148.9"/>
				<rect x="1142.2" y="963.4" class="st3" width="109.4" height="148.9"/>
				<rect x="1154.2" y="989.8" class="st2" width="84.7" height="54.1"/>
			</g>
			<g>
				<rect x="1433.6" y="963.4" class="st2" width="109.4" height="148.9"/>
				<rect x="1400.4" y="963.4" class="st3" width="109.4" height="148.9"/>
				<rect x="1412.4" y="989.8" class="st2" width="84.7" height="54.1"/>
			</g>
			<g>
				<rect x="1691.8" y="963.4" class="st2" width="109.4" height="148.9"/>
				<rect x="1658.7" y="963.4" class="st3" width="109.4" height="148.9"/>
				<rect x="1670.7" y="989.8" class="st2" width="84.7" height="54.1"/>
			</g>
			<g>
				<rect x="1950.1" y="963.4" class="st2" width="109.4" height="148.9"/>
				<rect x="1917" y="963.4" class="st3" width="109.4" height="148.9"/>
				<rect x="1929" y="989.8" class="st2" width="84.7" height="54.1"/>
			</g>
		</g>
		<g>
			<g>
				<rect x="416.9" y="694.5" class="st2" width="109.4" height="148.9"/>
				<rect x="383.8" y="694.5" class="st3" width="109.4" height="148.9"/>
				<rect x="395.8" y="720.8" class="st2" width="84.7" height="54.1"/>
			</g>
			<g>
				<rect x="658.7" y="694.5" class="st2" width="109.4" height="148.9"/>
				<rect x="625.6" y="694.5" class="st3" width="109.4" height="148.9"/>
				<rect x="637.6" y="720.8" class="st2" width="84.7" height="54.1"/>
			</g>
			<g>
				<rect x="917" y="694.5" class="st2" width="109.4" height="148.9"/>
				<rect x="883.9" y="694.5" class="st3" width="109.4" height="148.9"/>
				<rect x="895.9" y="720.8" class="st2" width="84.7" height="54.1"/>
			</g>
			<g>
				<rect x="1175.3" y="694.5" class="st2" width="109.4" height="148.9"/>
				<rect x="1142.2" y="694.5" class="st3" width="109.4" height="148.9"/>
				<rect x="1154.2" y="720.8" class="st2" width="84.7" height="54.1"/>
			</g>
			<g>
				<rect x="1433.6" y="694.5" class="st2" width="109.4" height="148.9"/>
				<rect x="1400.4" y="694.5" class="st3" width="109.4" height="148.9"/>
				<rect x="1412.4" y="720.8" class="st2" width="84.7" height="54.1"/>
			</g>
			<g>
				<rect x="1691.8" y="694.5" class="st2" width="109.4" height="148.9"/>
				<rect x="1658.7" y="694.5" class="st3" width="109.4" height="148.9"/>
				<rect x="1670.7" y="720.8" class="st2" width="84.7" height="54.1"/>
			</g>
			<g>
				<rect x="1950.1" y="694.5" class="st2" width="109.4" height="148.9"/>
				<rect x="1917" y="694.5" class="st3" width="109.4" height="148.9"/>
				<rect x="1929" y="720.8" class="st2" width="84.7" height="54.1"/>
			</g>
		</g>
		<g>
			<g>
				<rect x="416.9" y="416.5" class="st2" width="109.4" height="148.9"/>
				<rect x="383.8" y="416.5" class="st3" width="109.4" height="148.9"/>
				<rect x="395.8" y="442.9" class="st2" width="84.7" height="54.1"/>
			</g>
			<g>
				<rect x="658.7" y="416.5" class="st2" width="109.4" height="148.9"/>
				<rect x="625.6" y="416.5" class="st3" width="109.4" height="148.9"/>
				<rect x="637.6" y="442.9" class="st2" width="84.7" height="54.1"/>
			</g>
			<g>
				<rect x="917" y="416.5" class="st2" width="109.4" height="148.9"/>
				<rect x="883.9" y="416.5" class="st3" width="109.4" height="148.9"/>
				<rect x="895.9" y="442.9" class="st2" width="84.7" height="54.1"/>
			</g>
			<g>
				<rect x="1175.3" y="416.5" class="st2" width="109.4" height="148.9"/>
				<rect x="1142.2" y="416.5" class="st3" width="109.4" height="148.9"/>
				<rect x="1154.2" y="442.9" class="st2" width="84.7" height="54.1"/>
			</g>
			<g>
				<rect x="1433.6" y="416.5" class="st2" width="109.4" height="148.9"/>
				<rect x="1400.4" y="416.5" class="st3" width="109.4" height="148.9"/>
				<rect x="1412.4" y="442.9" class="st2" width="84.7" height="54.1"/>
			</g>
			<g>
				<rect x="1691.8" y="416.5" class="st2" width="109.4" height="148.9"/>
				<rect x="1658.7" y="416.5" class="st3" width="109.4" height="148.9"/>
				<rect x="1670.7" y="442.9" class="st2" width="84.7" height="54.1"/>
			</g>
			<g>
				<rect x="1950.1" y="416.5" class="st2" width="109.4" height="148.9"/>
				<rect x="1917" y="416.5" class="st3" width="109.4" height="148.9"/>
				<rect x="1929" y="442.9" class="st2" width="84.7" height="54.1"/>
			</g>
		</g>
		<g>
			<path class="st4" d="M97.3,837.5c0.5,8.2,1,16.4,1.6,24.6h2037.3c0.6-8.2,1.1-16.4,1.6-24.6H97.3z"/>
			<path class="st4" d="M102.2,559.8c-1.9,8.1-3.2,16.3-4.2,24.6h2034.8c-0.8-8.2-1.6-16.4-2.5-24.6H102.2z"/>
			<path class="st4" d="M2095.6,1128.4c1.9-8.2,3.8-16.4,5.6-24.6H128.5c1.5,8.2,3,16.4,4.6,24.6H2095.6z"/>
		</g>
		<path class="st5" d="M971.2,1466.3c85.1-26.1,170.2-52.3,255.2-78.4c13.6-4.2,28.4-8.4,41.9-3.6c13.5,4.7,22.9,22.7,13.9,33.8
			c72-23.6,143.2-49.9,213.3-78.8c7.4-3.1,13.7,7.5,18.6,13.8c4,5.1,3.4,12.7,0.3,18.4c-3.1,5.7-8.3,10-13.3,14.1
			c-15,12.2-30,24.4-45,36.7c-8.3,6.7-16.8,13.7-21.5,23.3s-4.7,22.3,3,29.7c9.5,9.1,24.8,6,37.4,2.1c46-14.3,91.1-31.7,134.8-52
			c38.5-17.9,61.2-44.5,91.3-74.5c30.1-30,70.1-57,111.9-49.7c3,0.5,6.2,1.3,8.6,3.2c9.1,7.2,1.6,21.4-4.7,31.2
			c-7.6,11.9-12.6,25.5-14.6,39.5c-0.7,4.9-0.9,10.2,1.5,14.6c6,10.6,21.8,7.7,33,3.1c34.3-14.1,90.6-63.5,135.3-62
			c10.9,0.4-12.8,48-16.8,58.7c73,11.9,148.5-15.4,221.1-1c6.8,11.7-5.5,27.5-16.8,35c-11.3,7.5-25.3,9-38.7,10.7
			c-98,12.4-191.9,46.3-288.2,68.3c-260.6,59.4-532.3,30.4-799.2,45.4c-17.9,1-36.3,2.2-53.6-2.8c-17.3-5-33.6-17.5-37.8-34.9
			S954,1471.6,971.2,1466.3z"/>
		<path class="st6" d="M224.5,1554.1c169.1-23.6,340-32,510.5-40.4c180.4-8.9,360.7-17.7,541.1-26.6c29.5-1.5,58.7,16,87.1,24.3
			c28.4,8.3,60.4,14.2,86.3-0.1c62.7-34.7,115.7,0.2,187-7.9c121.7-13.7,248.2-20.4,370.4-12.4c27.2,1.8,60.3,9,67.8,35.2
			c-181.2,49.2-366.4,83.8-553.1,103.2c-30.6,3.2-61.5,6-92.1,2.9c-31.8-3.1-62.6-12.5-94.1-17.9c-70.5-12.2-142.7-4.7-213.9,1.9
			c-135.9,12.5-272.1,21.2-408.4,26.3c-56.1,2.1-112.9,3.5-167.9-8c-72.8-15.3-143.1-53.2-217-44.8c-20.4,2.3-40.4,8.2-60.9,8.3
			c-20.5,0.1-42.8-6.9-53.6-24.3C209.8,1567.9,217.5,1555.1,224.5,1554.1z"/>
		<path class="st7" d="M665.6,1572.5c79.1-1.4,158.2-5.1,237.1-11.1c57.2-4.3,114.4-9.9,171.8-12.6c231-10.9,464.2,24,693-9.8
			c10.9-1.6,23.5-4.8,27.5-15c-134.3-12.7-269.5,14.9-404.2,8.5c-43.4-2-86.6-7.6-130-9.8c-130.4-6.7-261.2,16.9-391.4,7.9
			c-48.6-3.4-97.1-11.3-145.7-8.4c-45.5,2.6-90.3,14.3-136,15c-34,0.5-71.7-18.8-104.3-8.3c-67.4,21.6,19,37.2,44.6,39.9
			C573.7,1573.5,619.8,1573.4,665.6,1572.5z"/>
		<g>
			<path class="st8" d="M1669.5,1071.5c23.8,6.3,124.7,116.7,124.7,116.7c40.2-79.1,254.5-184.6,277.6-178
				c23.1,6.6,59.8,90.1,56,125c-3.8,34.9-55.5-50.9-55.5-50.9s-225.1,223.1-290.6,248.6c-59.6,23.2-181.7-148-204-185.5
				c-2.2-3.7-3.4-6-3.5-6.9C1595.6,1102.1,1627.8,1085.3,1669.5,1071.5z"/>
			<path class="st9" d="M2054.3,1051.3c-7.1,3.2-13.1,8.1-19.4,12.6c-6.3,4.5-12.6,9-18.9,13.4c-12.6,8.9-25.2,17.9-37.9,26.8
				c-24.7,17.5-49.4,34.9-74.2,52.3c-25.1,17.6-50.2,35-75.4,52.4c-12.3,8.5-24.5,17.3-37.1,25.5c-6.1,4-9.1,3.6-14.5-1.3
				c-5.5-5-10.8-10.3-16.2-15.5c-12-11.5-23.9-23.2-35.9-34.7c-6-5.7-12-11.6-18.1-17.2c-3.1-2.8-6.1-5.6-9.2-8.4
				c-3.7-3.3-7.8-5.8-11.6-9c-2.7-2.3-6,1.1-3.8,3.8c2.6,3.4,4.5,7.1,7.2,10.4c2.2,2.7,4.5,5.3,6.7,8c5.4,6.3,11,12.5,16.7,18.6
				c10.9,11.7,22.1,23,33.5,34.2c5.4,5.4,10.9,10.7,16.4,16c4.8,4.6,9.9,9.9,16.5,11.8c6.4,1.8,12.6-0.1,18-3.4
				c6.7-4.1,13-8.9,19.4-13.3c52.6-36.4,105-73.2,157.1-110.5c14.6-10.4,29.1-20.9,43.6-31.5c7.4-5.4,14.8-10.8,22.2-16.2
				c7.2-5.2,14.9-10.1,20.9-16.7C2064.6,1054.9,2059.5,1049,2054.3,1051.3z"/>
			<path class="st10" d="M2071.9,1010.2c-3.7-1-12.1,0.7-23.9,4.7c10.5,16.7,20.6,33.9,26.1,52.9c2.2,7.7,3.7,15.6,5.1,23.5
				c0.3,1.8,0.6,3.5,1,5.3c14.6,22.3,44.9,65,47.7,38.6C2131.7,1100.4,2095,1016.8,2071.9,1010.2z"/>
			<path class="st10" d="M1688,1169.5c14.4-16,26.8-33.5,38.1-51.8c-23.7-23.1-46.8-43.6-56.6-46.2c-41.7,13.7-73.9,30.5-95.1,69
				c0.1,0.8,1.3,3.2,3.5,6.9c7.5,12.6,26.2,40.3,50,70.6C1650.6,1205.7,1670.7,1188.7,1688,1169.5z"/>
			<polygon class="st10" points="937.9,1053.5 838.4,1123.3 828.2,1111.1 931.2,1047.2 			"/>
			<g>
				<path class="st11" d="M1257.8,801.1l-353,234.6c0,0,21,42.5,44.4,33.1c0,0,29.5-3.6,24.5-27c0,0,177.8-3.4,214.3-121.1
					c0,0,190-87.5,194.1-117.7S1378.9,709.9,1257.8,801.1z"/>
				<path class="st12" d="M1382,803c4.1-30.2-3.1-93.1-124.2-1.9L1117,894.7c6.4,3.1,11.8,8.5,16.6,13.9
					c10.1,11.6,18.9,24.6,23.9,39.1c2.2,6.5,3.7,13.3,4.1,20.2c11.4-13.2,20.5-28.8,26.2-47.2C1187.9,920.7,1377.9,833.2,1382,803z"
					/>
			</g>
			<path class="st10" d="M1154.6,761.2c-10.3-15.9-9.3-37.5-0.2-54.1c9.2-16.6,25.6-28.4,43.4-34.8c10.6-3.8,21.9-5.9,33.1-6.2
				c31.3-0.7,62.2,12.6,93.2,8.1c36.5-5.3,66.6-34.3,103.2-38.5c12.5-1.4,25.3,0.2,37,4.6c7.3,2.8,14.3,6.7,19.4,12.7
				c12.1,14,10.6,34.9,8.4,53.3c-1.2,9.7-2.6,20.1-9.1,27.5c-3.6,4.1-8.5,6.9-13.5,9.4c-17.2,8.6-35.8,14.5-54.9,17.4
				c-17.4,2.6-35.1,2.7-52.7,3.4c-38.5,1.4-76.8,5.5-114.8,12.3c-17.9,3.2-35,2.2-52.8,3.8C1179,781.5,1163.3,774.6,1154.6,761.2z"
				/>
			<path class="st13" d="M1356.1,742.3c0,0-0.7,3-1.9,8.1c-6.8,29.5-29.1,131.3-23.8,162.3c6.3,36.4,124.9,29.9,124.9,29.9
				s110.4,68,117.2,102.8c0,0-521.4,314.3-586.2,360.5c0,0-103.6-25.3-90.9-6.3c12.6,18.9,93.4,51.7,93.4,51.7
				s290.8-51.4,331.5-152.4c0,0,381.3-139.4,383.8-191.8c2.5-52.4-211.4-359.3-251-376s-73.6-19-97.8,14.2"/>
			<path class="st12" d="M1376.1,875.4c31.1-35.1,55.9-80.8,48.8-127.2c-3.7,1.2-6.6,4.1-9.3,6.9c-28.1,28.9-54.9,59.2-80.3,90.6
				c-4.4,27.8-7.2,53.8-4.9,67c0.1,0.8,0.4,1.6,0.6,2.4C1348,904.4,1362.8,890.4,1376.1,875.4z"/>
			<path class="st9" d="M1659.8,1008c-27.9,15-58.2,25.5-89.5,31c1,2.2,1.8,4.3,2.2,6.3c0,0-521.4,314.3-586.2,360.5
				c0,0-103.6-25.3-90.9-6.3c12.6,18.9,93.4,51.7,93.4,51.7s290.8-51.4,331.6-152.4c0,0,381.3-139.4,383.8-191.8
				C1704.9,1091.5,1686.8,1053.8,1659.8,1008z"/>
			<path class="st14" d="M1259.4,1272.9c6-0.6,12.1-1.3,17.5-4c10.4-5.3,15.6-17.1,18.7-28.3c2.7-9.8,4.3-20,4.8-30.2
				c-33.8,20.6-68.1,41.5-101,61.7C1218.4,1276.7,1239.5,1274.9,1259.4,1272.9z"/>
			<path class="st10" d="M979.8,1404.3c-22.6-5.2-95-20.8-84.3-4.8c12.6,18.9,93.4,51.7,93.4,51.7s20.6-3.6,51.7-10.9
				c-13.6-3.2-26.8-8.5-38.8-15.7C993,1419.5,984.7,1413,979.8,1404.3z"/>
			<path class="st15" d="M1187.8,763.2c0,0,5.6,63.2,40.6,53.8s42.6-27.7,42.6-27.7l68.3,11.2c0,0,25.8-38,18.7-58.3l-61.9,4.2
				c0,0-7.3-30.6-30.6-15.8C1242.1,745.4,1248.5,759.8,1187.8,763.2z"/>
			<path class="st11" d="M1198.8,776.3c12.8-0.3,25.8-2.6,37.3-8.3c11.5-5.7,21.4-15,26.6-26.8c1.9-4.4,2.9-7.7,4.1-11.3
				c-0.4,0.3-0.9,0.5-1.3,0.8c-23.3,14.8-17,29.2-77.7,32.6c0,0,0.5,5.4,2,12.8C1192.8,776.3,1195.8,776.3,1198.8,776.3z"/>
			<path class="st11" d="M1279.7,768.9c-5.4,9.7-10.8,19.4-15.5,29.4c5.2-5.1,6.8-9,6.8-9l10,1.6
				C1281.5,783.6,1281.1,776.2,1279.7,768.9z"/>
			<path class="st14" d="M1611,1038.8c-0.4-1.4-2.7-1.2-2.6,0.4c0.9,22.2-6.3,41.5-19.9,58.9c-13.9,18-32,32.2-50.5,45.1
				c-38.5,26.9-80.6,48.2-122.7,68.9c-42.8,21-85.1,42.4-126.4,66.4c-40.5,23.5-80.4,48.2-121.3,71c-23.1,12.9-46.5,25.2-70.5,36.3
				c-12.2,5.7-24.5,11-37,15.9c-12,4.7-24.5,8.4-36.1,14.1c-3.6,1.8-0.9,6.7,2.6,6.1c11.8-2,23-6.8,34.1-11.1
				c11.2-4.4,22.2-9.1,33.2-14c22.1-10,43.7-21,65-32.5c42.3-23,83.2-48.2,124.7-72.6c41.9-24.6,84.7-47.1,128.3-68.6
				c43.5-21.5,87.1-43.2,127-71c20.5-14.3,40.7-29.8,55.9-49.9C1607.9,1084.5,1618.1,1060.9,1611,1038.8z"/>
			<g>
				<path class="st10" d="M936.3,1045.4c2.9-0.5,127.2,41.2,127.2,41.2l-13.2,12.2l-121-43.5
					C929.3,1055.3,925.1,1047.5,936.3,1045.4z"/>
				<path class="st15" d="M1314.8,792l-304.8,294.6c0,0,28.4,38,49.7,24.5c0,0,28.4-8.9,19.2-31c0,0,174.2-35.6,188.8-157.9
					c0,0,171-120.4,169.6-150.9S1417.4,680.4,1314.8,792z"/>
				<path class="st13" d="M1437.3,771.4c-1.4-30.5-19.9-91-122.5,20.6l-121.5,117.5c6.8,1.9,13.2,6.2,18.8,10.7
					c12.1,9.6,23.1,20.8,30.6,34.2c3.4,6,6,12.4,7.7,19.1c8.8-15.1,15-32.1,17.3-51.2C1267.7,922.3,1438.7,801.8,1437.3,771.4z"/>
			</g>
			<path class="st11" d="M927.9,675.9c-39.6,54.6-74.3,198-81.6,229.3c-1.4,6.2-1.4,12.7,0.5,18.8c2.9,9.6,10.3,19.2,29.1,7.6
				c15.3-9.4,16.5-49.6,33.4-107.2c17.8-60.9,41.6-121.5,39.8-133.1C945.7,668.9,927.9,675.9,927.9,675.9z"/>
			<path class="st12" d="M846.3,905.3c-1.4,6.2-1.4,12.7,0.5,18.8c2.9,9.6,10.3,19.2,29.1,7.6c11.8-7.2,15.2-32.7,23.9-70.4
				c-13.8-0.9-27.5-3-40.9-6.3C852.8,877.9,848.4,896.2,846.3,905.3z"/>
			<path class="st13" d="M919.4,876.5c0,0,89.7,21,90.7,39.3c1,18.3-65,169.5-83.8,171.9c-18.8,2.4-93.2-14.2-97.1-27
				s19.3-168.2,43.6-179.1C897,870.7,919.4,876.5,919.4,876.5z"/>
			<path class="st12" d="M884,1005.3c-1.5-25.8-13-51.2-32.3-68.4c-1-0.9-2-1.7-3-2.6c-13.2,49.9-22,118.1-19.5,126.4
				c1.7,5.4,16,11.5,33.4,16.6c1.6-4.4,3.2-8.9,4.9-13.3c-1.6,4.4-3.2,8.9-4.9,13.3c0.1,0,0.2,0,0.2,0.1
				C877.5,1056.5,885.5,1030.7,884,1005.3z"/>
			<circle class="st10" cx="1047.3" cy="1100" r="17.5"/>
			<path class="st9" d="M516.6,991.7c-18.4-1.7-40.7-8.2-44.5-26.3c-3-14.2,8.2-28.1,21.4-33.8s28.2-5.5,42.7-6.2
				c14.4-0.7,29.8-2.9,40.8-12.2c11.3-9.5,15.9-24.5,24.7-36.4c10.6-14.4,27.6-24,45.4-25.5c7.6-0.7,15.6,0.2,22.1,4.1
				c5,3,8.9,7.5,14.1,10.3c12.8,6.9,28.7,0.5,40.5-7.9s23.2-18.9,37.5-21.2c14.3-2.3,31.8,9.7,27.9,23.6c-2.7,9.7-14.6,17.5-11.2,27
				c5,14.3,36,6.8,35.8,21.9c-0.1,6.5-7.5,12-5.6,18.2c1.2,3.8,5.3,5.7,8.6,8c9.1,6.2,13.5,18.6,10.4,29.1
				c-3.1,10.6-13.5,18.5-24.5,18.9c-9,0.3-17.3-4-26.1-6.1c-22.9-5.4-47.1,2.7-70.1,3.4c-15.2,0.5-30.3-1.8-45.5-0.9
				C611.8,982.8,566.9,996.3,516.6,991.7z"/>
			<path class="st14" d="M751.7,874.5c-15.3,0.3-30.9,7.4-45.1,12.4c-10.1,3.6-20.2,7.3-30.2,11.1c2.7-4.4,5.8-8.6,8.3-12.4
				c1.1-1.6-0.7-4.2-2.6-3.4c-5.5,2.2-9.4,5.6-12.1,10.9c-1.5,2.9-2.2,5.6-2.6,8.4c-1.9,0.7-3.8,1.5-5.7,2.2c-13,5-26,10-39.1,14.7
				c3.3-14,12.3-26.5,21.1-37.5c1.4-1.7,0.2-5.1-2.4-4.1c-10.3,3.8-17.2,11.9-21.5,21.9c-2,4.7-3.5,9.5-4,14.6
				c-0.3,2.6-0.2,5.1,0.1,7.5C601,926,586,930.9,570.7,935c-17.4,4.7-34.9,7.8-52.5,11.3c-2.9,0.6-2.1,4.9,0.7,4.9
				c31.3,0.8,63.3-8.5,92.7-18.2c2.3-0.8,4.5-1.5,6.8-2.3c0.9,0.5,2.4,0.1,2.8-1c2.7-0.9,5.4-1.9,8.2-2.9
				c12.1,8.7,25.9,12.6,41.1,10.3c2.9-0.4,1.9-4.6-0.7-4.8c-11.4-0.9-23-3.4-33.6-7.9c10.9-4,21.8-8.1,32.7-12.2
				c0.9,0.2,1.9,0,2.4-0.9c9.3-3.5,18.6-7,28-10.5c0.2,0.6,0.7,1,1.4,1.3c13.2,4.9,28.9,14,43.5,11.1c2-0.4,2.2-3.3,0.6-4.2
				c-6.2-3.8-13.6-4.6-20.6-6.1c-6.2-1.4-12.6-2.5-18.7-4.4c7.7-2.8,15.4-5.4,23.2-8c8.5-2.8,17.3-4.9,25.1-9.4
				C756.7,879.6,755.4,874.4,751.7,874.5z"/>
			<g>
				<path class="st16" d="M760.8,944.5c16.8,0.4,33.9,2.2,49.3,8.8s29.2,18.6,34.8,34.4c3.3,9.3,3.7,19.4,2.9,29.3
					c-2.4,29.4-16.4,59.1-41.5,74.7c-34.9,21.7-80.1,11.8-119-1.5c-14-4.8-28.7-10.4-37.9-22.1c-5-6.4-7.9-14.2-9.7-22.2
					c-7-31.3,6.3-65,30-85.8C694.7,938.2,729.5,943.8,760.8,944.5z"/>
				<path class="st17" d="M770.3,975.3c5.4-9.5,10.4-19.4,16.2-28.7c-8.5-1.4-17.1-2-25.7-2.2c-31.3-0.7-66.1-6.3-91,15.6
					c-23.7,20.8-36.9,54.6-30,85.8c1.8,7.9,4.7,15.7,9.7,22.2c5.5,7.1,13.1,11.9,21.3,15.7C711.5,1055.7,745.9,1018.4,770.3,975.3z"
					/>
			</g>
			<g>
				<path class="st18" d="M521.2,1174.8c-4.1,1.4-7.8-2.9-10-6.7c-32.4-57-45.1-124.9-35.6-189.7c-13.7-5.6-26.7-17.9-35.7-29.8
					c97.7,13.1,198.7,0.3,290-36.6c-6.6,12-15.4,22.8-25.9,31.7c31.3,60.7,42.1,131.8,30.2,199.1c-1.1,6-2.5,12.4-6.9,16.8
					c-3.8,3.8-9.3,5.4-14.5,6.8C649.9,1182.5,582.8,1153.7,521.2,1174.8z"/>
				<path class="st19" d="M704.1,943.6c10.4-8.9,19.2-19.7,25.9-31.7c-91.3,37-192.3,49.7-290,36.6c8.9,11.9,21.9,24.2,35.7,29.8
					c-5.1,34.4-3.8,69.6,3.2,103.6c83.6-27.2,163-67.2,234.7-118.1C710.7,957,707.5,950.2,704.1,943.6z"/>
				<path class="st20" d="M548.3,980.4c36.8-3.1,73-11.3,109-19.4c13-2.9,26-5.9,38.1-11.6c3.1-1.5,6.2-3.1,9.1-4.9
					c-0.1-0.3-0.3-0.6-0.4-0.8c5.4-4.6,10.4-9.8,14.9-15.4c-21.4,9.4-43.2,18.2-66,23.3c-15.7,3.5-31.6,5.2-47.6,6.9
					c-52.6,5.7-106.9,11.1-157.9-1c8,8.7,17.9,16.6,28.2,20.8c-0.1,0.5-0.1,1.1-0.2,1.6C499.7,982.3,524.1,982.4,548.3,980.4z"/>
				<path class="st20" d="M554.8,1006.6c1.3,43.3,14.9,109.9,28.3,160.2c43.2,0.9,87.4,10.4,129.8-0.5c5.2-1.3,10.7-2.9,14.5-6.8
					c4.3-4.3,5.8-10.7,6.8-16.8c7.7-43.4,5.9-88.4-4.7-131.1C671.5,1018.4,612.4,1016.7,554.8,1006.6z"/>
			</g>
			<g>
				<g>
					<polygon class="st13" points="865.5,1103.4 790.9,1298.6 594.3,1298.6 583.4,1029 814.5,1058.7 					"/>
					<path class="st12" d="M583.4,1029l231.1,29.7l51,44.6l-2.3,6c-65.8-7.8-237.3-26.7-237.3-26.7l-3.4,215.9h-28.3L583.4,1029z"/>
				</g>
			</g>
			<g>
				<path class="st16" d="M739.1,1247.8c12.1-11.7,25.3-22.6,40.9-29c15.5-6.4,33.7-7.8,49-0.7c9,4.2,16.5,11,22.9,18.5
					c19.3,22.3,30.6,53.1,24.1,81.9c-9,40-47.8,65.4-84.5,83.8c-13.3,6.7-27.6,13.2-42.3,11.5c-8.1-0.9-15.7-4.3-22.6-8.6
					c-27.2-17-41.9-50.1-40.1-81.6C688.2,1290.5,716.6,1269.6,739.1,1247.8z"/>
				<path class="st17" d="M767.7,1262.6c-3-10.5-6.6-21-9.1-31.7c-6.9,5.1-13.4,10.8-19.6,16.8c-22.4,21.8-50.8,42.7-52.7,75.8
					c-1.8,31.5,13,64.6,40.1,81.6c6.9,4.3,14.5,7.7,22.6,8.6c8.9,1,17.7-1,26.2-4.2C783.8,1360.9,781.3,1310.2,767.7,1262.6z"/>
			</g>
			<g>
				<path class="st21" d="M361.8,1011.9c-8-9.3-16.4-22.4-10-32.9c49.2,51.5,98.4,103,146.3,155.7c15.4,17,38.4,38.7,43.4,61.6
					c-13.6-3.3-25.3-18.9-35-28.5c-16.7-16.7-33.2-33.6-49.5-50.8C424.4,1082.8,392.7,1047.7,361.8,1011.9z"/>
				<path class="st22" d="M349.8,1050.9c-2.7-1.1-5.3-2.1-8-3.2"/>
				<path class="st23" d="M354,1042.1c16.4,6.3,37.4,8.9,49.5-3.8c5.5-5.8,8.1-13.7,9.4-21.6c1.8-11.4,0.9-23.1-2.4-34.1
					c-1.7-5.7-4.1-11.5-2.8-17.3c1.5-6.3,6.9-10.7,11-15.8c4.1-5,6.9-12.8,2.6-17.7c-4.4-5.1-12.7-3.2-18.7-0.2
					c-16.8,8.3-30.8,21.5-46.5,31.7c-18.2,11.8-38.9,19.8-60.3,23.2c-8.3,1.3-18,3.4-19.7,12.3c11.4,5.5,21.2,6.7,31.7,14.2
					C323.2,1024.1,335.7,1035.1,354,1042.1z"/>
			</g>
			<g>
				<g>
					<polygon class="st24" points="409.5,1176.2 499.5,1411.5 736.4,1411.5 749.6,1086.6 471,1122.5 					"/>
					<path class="st25" d="M749.6,1086.6L471,1122.5l-61.5,53.8l2.7,7.2c79.3-9.4,286-32.2,286-32.2l4.1,260.3h34.1L749.6,1086.6z"
						/>
				</g>
				<ellipse class="st26" cx="581.4" cy="1283.4" rx="59.6" ry="69.1"/>
			</g>
			<g>
				<g>
					<path class="st10" d="M801.7,1474.5H475.5c-4.2,0-7.5-3.4-7.5-7.5c0-4.2,3.4-7.5,7.5-7.5H797L954,1141.2
						c0.6-1.3,1.6-2.4,2.8-3.1l85.6-52.2c3.5-2.2,8.2-1,10.3,2.5c2.2,3.5,1,8.2-2.5,10.3l-83.8,51l-158,320.5
						C807.2,1472.9,804.6,1474.5,801.7,1474.5z"/>
				</g>
				<g>
					<path class="st10" d="M477.6,1427.7c-2.8,0-5.4-1.6-6.7-4.1l-136.1-266.7c-1.2-2.3-1.1-5.1,0.3-7.3c1.4-2.2,3.8-3.6,6.4-3.6
						h613.9c4.2,0,7.5,3.4,7.5,7.5c0,4.2-3.4,7.5-7.5,7.5H353.8l128.4,251.7l338.5-1.9c0,0,0,0,0,0c4.1,0,7.5,3.3,7.5,7.5
						c0,4.2-3.3,7.5-7.5,7.6L477.6,1427.7C477.6,1427.7,477.6,1427.7,477.6,1427.7z"/>
				</g>
				<g>
					
						<ellipse transform="matrix(0.4489 -0.8936 0.8936 0.4489 -1063.3512 1292.0226)" class="st10" cx="515.8" cy="1508.1" rx="35.2" ry="56.4"/>
				</g>
				<g>
					
						<ellipse transform="matrix(0.4489 -0.8936 0.8936 0.4489 -907.28 1545.0872)" class="st10" cx="799" cy="1508.1" rx="35.2" ry="56.4"/>
				</g>
				<g>
					<path class="st10" d="M863.1,1345.1H435.4c-4.2,0-7.5-3.4-7.5-7.5s3.4-7.5,7.5-7.5h427.6c4.2,0,7.5,3.4,7.5,7.5
						S867.2,1345.1,863.1,1345.1z"/>
				</g>
				<g>
					<path class="st10" d="M902.1,1256.5H391.3c-4.2,0-7.5-3.4-7.5-7.5c0-4.2,3.4-7.5,7.5-7.5h510.8c4.2,0,7.5,3.4,7.5,7.5
						C909.6,1253.2,906.3,1256.5,902.1,1256.5z"/>
				</g>
				<g>
					<path class="st10" d="M535.6,1425.5c-3.2,0-6.1-2-7.1-5.2l-85-260c-1.3-3.9,0.9-8.2,4.8-9.5c3.9-1.3,8.2,0.9,9.5,4.8l85,260
						c1.3,3.9-0.9,8.2-4.8,9.5C537.2,1425.3,536.4,1425.5,535.6,1425.5z"/>
				</g>
				<g>
					<path class="st10" d="M614.9,1425.5c-3.6,0-6.8-2.6-7.4-6.3l-44.3-260c-0.7-4.1,2.1-8,6.1-8.7c4.1-0.7,8,2.1,8.7,6.1l44.3,260
						c0.7,4.1-2.1,8-6.1,8.7C615.8,1425.4,615.3,1425.5,614.9,1425.5z"/>
				</g>
				<g>
					<path class="st10" d="M770.5,1425.5c-0.8,0-1.6-0.1-2.3-0.4c-3.9-1.3-6.1-5.5-4.8-9.5l85-260c1.3-3.9,5.5-6.1,9.5-4.8
						c3.9,1.3,6.1,5.5,4.8,9.5l-85,260C776.6,1423.4,773.7,1425.5,770.5,1425.5z"/>
				</g>
				<g>
					<path class="st10" d="M691.3,1425.5c-0.4,0-0.8,0-1.3-0.1c-4.1-0.7-6.8-4.6-6.1-8.7l44.3-260c0.7-4.1,4.6-6.8,8.7-6.1
						c4.1,0.7,6.8,4.6,6.1,8.7l-44.3,260C698,1422.9,694.9,1425.5,691.3,1425.5z"/>
				</g>
			</g>
			<path class="st11" d="M1273.6,739.1c0.7-1.4,1.9-2.8,3.5-2.9c0.8,0,1.6,0.3,2.2,0.7c0.4,0.3,0.8,0.7,1,1.2
				c0.7,1.1,0.8,2.5,0.8,3.8C1281,753.9,1269.3,747.8,1273.6,739.1z"/>
			<g>
				<path class="st10" d="M907.8,801.7c-13.5-11-18-31.6-10.5-47.3c5.8-11.9,17.1-20.1,28.3-27.1c1.8-1.1,3.4,1.4,5.5,1.3
					c0.5,0,1.1,0,1.6,0.4c0.4,0.4,0.5,1,0.5,1.6c0,3.4-1.5,6.5-2.2,9.8s-0.1,7.4,2.9,9c13.1-9,28.8-14.9,44.6-13.2
					c-4.1,4.1-8.5,8.7-8.7,14.5c-0.3,9.6,10.4,15.1,18.7,20c12.8,7.6,23.4,19.5,27.5,33.8s1,30.9-9.4,41.5
					c-13.7,14-35.7,15-55.3,14.3c-5.2-0.2-10.7-0.5-15.1-3.4c-5.2-3.4-7.6-9.5-9.8-15.3c-3.7-9.9-7.4-19.8-11.1-29.6
					C913.9,808.7,910.6,804,907.8,801.7z"/>
				<path class="st15" d="M902.3,783.8c-4.5,9.8-9,19.5-13.5,29.3c-4,8.6-8,18.6-4.1,27.3c3.6,8.2,12.9,12.2,17.8,19.7
					c5.8,8.9,4.1,20.6,2.1,31c7.1,5.8,18.5,9.2,25.9,3.7c8.9-6.5,12.1-19.6,22.2-24.1c5.1-2.3,11-1.8,16.5-2.8
					c8.9-1.5,16.9-7.1,21.6-14.8c4.6-7.7,5.8-17.4,3-26c-2.5-7.6-9.6-13.4-17.5-14.5c-4.7,6.8-11.5,12.5-17.4,18.3
					c-1.1,1.1-2.3,2.2-3.8,2.5c-2.7,0.7-5.3-1.2-7.2-3.3c-3.7-4.1-6.1-9.3-6.7-14.7c9.8-1.8,19.6-6.1,26.6-13.2
					c-5.1,2-10.8,0.4-16-1.2C937.1,796.7,916.8,788.2,902.3,783.8z"/>
				<path class="st11" d="M919.4,876.5c6.4-0.5,13.2-1.6,17.8-6c4.1-3.8,5.9-9.9,4.6-15.3c-15.3,0.3-30.9-1-45.1-6.8
					c-4.4-1.8-8.8-4.2-11.9-7.7c3.7,7.9,12.8,11.9,17.6,19.3c3.2,5,4.1,10.8,3.9,16.8C910.7,876.9,915.1,876.8,919.4,876.5z"/>
				<path class="st11" d="M965.9,850.2c0.8-2.6,0.5-5.5,1.2-8.2c1-3.7,4-6.8,7.7-7.7c1.1-0.3,2.2-0.4,3.3,0.1c1.5,0.7,2.3,2.4,2.7,4
					c1,3.5,0.9,7.5-0.9,10.6c-1.9,3.2-5.5,5-9.1,5.7c-3.3,0.5-6.7,0-9.8-0.2C963.3,854.3,965.2,852.5,965.9,850.2z"/>
			</g>
			<path class="st15" d="M1095.9,726.2c-52.1,42.9-121.6,173-136.5,201.5c-3,5.7-4.5,12-4.3,18.3c0.4,10,5.1,21.2,26.3,14.7
				c17.1-5.2,28.4-43.9,59.2-95.4c32.6-54.5,70.8-107.2,72-118.9C1114.9,723.8,1095.9,726.2,1095.9,726.2z"/>
			<path class="st13" d="M959.5,927.7c-3,5.7-4.5,12-4.3,18.3c0.4,10,5.1,21.2,26.3,14.7c13-4,22.7-27.3,40.2-61
				c-11.5-7.5-23.8-13.8-36.6-18.8C973,902.2,963.8,919.3,959.5,927.7z"/>
			<path class="st27" d="M593.5,1142.5c-6.9-6.6-13.9-13.3-20.8-19.9c-2.4-2.3-4.9-4.7-8.1-5.6c-3.2-0.9-7.2,0.1-8.6,3.1
				c-1,2.2-0.4,4.7,0.2,6.9c2.9,10,7.5,19.6,13.3,28.2c4.8,7,10.9,13.9,19.2,15.8s18.6-3.2,19-11.7c0.4-6.7-5.1-12.3-10.7-16
				c-5.6-3.7-12.1-6.8-15.7-12.4"/>
			<path class="st10" d="M871.1,1067c-1.8-2.6-103-37.4-103-37.4l-178.6,109.4c0,0,4.5,27.6,25.1,24.7s159.7-50.6,159.7-50.6
				s129.2,43.5,139.2,35.3s12.7-60.8,12.7-60.8L871.1,1067z"/>
			<path class="st15" d="M790.6,1081.3c-1-18.4-8-36.4-19.6-50.7c-1.8-0.6-2.8-1-2.8-1l-178.6,109.4c0,0,4.5,27.6,25.1,24.7
				c20.6-2.8,159.7-50.6,159.7-50.6s4.1,1.4,10.8,3.6C789.3,1105.5,791.3,1093.3,790.6,1081.3z"/>
		</g>
	</g>
</g>
</svg>
