<?xml version="1.0" encoding="utf-8"?>
<svg id="master-artboard" viewBox="0 0 1400 980" version="1.1" xmlns="http://www.w3.org/2000/svg" x="0px" y="0px" style="enable-background:new 0 0 1400 980;" width="1400px" height="980px"><g transform="matrix(0.5235042735042735, 0, 0, 0.5235042735042735, 105.29914982882042, 0.000004529675152298296)"><g>
	<path d="M 2155 1524.099976 A 1019 82.900002 0 0 1 1136 1606.999977 A 1019 82.900002 0 0 1 117 1524.099976 A 1019 82.900002 0 0 1 1136 1441.199974 A 1019 82.900002 0 0 1 2155 1524.099976 Z" class="st0" style="fill: rgb(179, 179, 179);"/>
	<path d="M 254.800003 1397.699951 H 341.800003 V 1484.699951 H 254.800003 V 1397.699951 Z" class="st1" style="fill: rgb(199, 157, 104);"/>
	
		<path d="M 1930.199951 1397.699951 H 2017.199951 V 1484.699951 H 1930.199951 V 1397.699951 Z" transform="matrix(-1 -4.486912e-11 4.486912e-11 -1 3947.3313 2882.3696)" class="st1" style="fill: rgb(199, 157, 104);"/>
	
		<path d="M 1095.900024 1397.699951 H 1182.900024 V 1484.699951 H 1095.900024 V 1397.699951 Z" transform="matrix(-1 -4.486912e-11 4.486912e-11 -1 2278.7178 2882.3696)" class="st1" style="fill: rgb(199, 157, 104);"/>
	
		<path d="M 222 1484.699951 H 2050.099976 V 1528.199951 H 222 V 1484.699951 Z" transform="matrix(-1 -4.489754e-11 4.489754e-11 -1 2272 3012.8677)" class="st1" style="fill: rgb(199, 157, 104);"/>
	<path d="M 222 1354.199951 H 2050.099976 V 1397.699951 H 222 V 1354.199951 Z" class="st1" style="fill: rgb(199, 157, 104);"/>
	
		<path d="M 1186 265 H 1775.700012 V 545.100006 H 1186 V 265 Z" transform="matrix(-1 -4.489488e-11 4.489488e-11 -1 2961.7612 810.0745)" class="st2" style="fill: rgb(188, 138, 95);"/>
	<path d="M 1240.199951 265 H 1295.99995 V 545.100006 H 1240.199951 V 265 Z" class="st3" style="fill: rgb(191, 157, 107);"/>
	<path d="M 1453 265 H 1508.799999 V 545.100006 H 1453 V 265 Z" class="st3" style="fill: rgb(191, 157, 107);"/>
	
		<path d="M 1665.800049 265 H 1721.600048 V 545.100006 H 1665.800049 V 265 Z" transform="matrix(-1 -4.489710e-11 4.489710e-11 -1 3387.3809 810.0745)" class="st3" style="fill: rgb(191, 157, 107);"/>
	<g>
		<path d="M 1603.099976 485.399994 H 1646.299976 V 528.599995 H 1603.099976 V 485.399994 Z" class="st4" style="fill: none; stroke: rgb(66, 66, 66); stroke-width: 5; stroke-linecap: round; stroke-linejoin: round; stroke-miterlimit: 10;"/>
		<g>
			<path class="st5" d="M1615.8,495.6l-5.4,7.6h3.5v13.4c0,1,0.8,1.9,1.9,1.9l0,0c1,0,1.9-0.8,1.9-1.9v-13.4h4L1615.8,495.6z" style="fill: rgb(66, 66, 66);"/>
			<path class="st5" d="M1633.3,495.6l-5.4,7.6h3.5v13.4c0,1,0.8,1.9,1.9,1.9l0,0c1,0,1.9-0.8,1.9-1.9v-13.4h4L1633.3,495.6z" style="fill: rgb(66, 66, 66);"/>
		</g>
	</g>
	<g>
		<path d="M 1543.900024 485.399994 H 1587.100025 V 528.599995 H 1543.900024 V 485.399994 Z" class="st4" style="fill: none; stroke: rgb(66, 66, 66); stroke-width: 5; stroke-linecap: round; stroke-linejoin: round; stroke-miterlimit: 10;"/>
	</g>
	<path class="st5" d="M1575.3,496.8c0.4-0.5,0-1.2-0.6-1.2h-18.3c-0.6,0-1,0.7-0.6,1.2l9,12v8.2h-0.8c-0.4,0-0.8,0.3-0.8,0.8&#10;&#9;&#9;c0,0.4,0.3,0.8,0.8,0.8h3.1c0.4,0,0.8-0.3,0.8-0.8c0-0.4-0.3-0.8-0.8-0.8h-0.8v-8.2L1575.3,496.8z M1557.9,497.1h15.3l-2.9,3.8&#10;&#9;&#9;h-9.6L1557.9,497.1z" style="fill: rgb(66, 66, 66);"/>
	<path d="M 326.5 349.600006 H 773.299988 V 796.399994 H 326.5 V 349.600006 Z" class="st3" style="fill: rgb(191, 157, 107);"/>
	<g>
		<g>
			<g>
				<path d="M 342.899994 392.100006 H 429.899994 V 479.100006 H 342.899994 V 392.100006 Z" class="st4" style="fill: none; stroke: rgb(66, 66, 66); stroke-width: 5; stroke-linecap: round; stroke-linejoin: round; stroke-miterlimit: 10;"/>
				<path class="st5" d="M386.4,408.3l-19.9,28.2h13V456c0,3.8,3.1,6.8,6.8,6.8l0,0c3.8,0,6.8-3.1,6.8-6.8v-19.5h14.6L386.4,408.3z" style="fill: rgb(66, 66, 66);"/>
			</g>
		</g>
		<g>
			<path class="st5" d="M345.5,383.7h-2.6v-17.4h7.5v2.6h-4.9v4.8h3.5v2.6h-3.5V383.7z" style="fill: rgb(66, 66, 66);"/>
			<path class="st5" d="M360.2,366.2c1.5,0,2.5,0.4,3.2,1.2c0.6,0.7,0.9,1.7,0.9,2.9v2.5c0,1.2-0.5,2.3-1.4,3.1l1.9,7.6h-2.8&#10;&#9;&#9;&#9;&#9;l-1.6-6.6c-0.1,0-0.2,0-0.2,0h-1.5v6.6h-2.6v-17.4H360.2z M361.8,370.4c0-1-0.5-1.5-1.5-1.5h-1.6v5.6h1.6c0.4,0,0.8-0.1,1.1-0.4&#10;&#9;&#9;&#9;&#9;c0.3-0.3,0.4-0.7,0.4-1.1V370.4z" style="fill: rgb(66, 66, 66);"/>
			<path class="st5" d="M374.3,379.7l-0.6,4h-2.7l3-17.4h3.6l2.9,17.4h-2.8l-0.6-4H374.3z M375.7,370.2l-1,6.9h1.9L375.7,370.2z" style="fill: rgb(66, 66, 66);"/>
			<path class="st5" d="M390.3,383.9c-1.2,0-2.1-0.4-3-1.2c-0.8-0.8-1.2-1.8-1.2-2.9v-9.5c0-1.2,0.4-2.1,1.2-3&#10;&#9;&#9;&#9;&#9;c0.8-0.8,1.8-1.2,2.9-1.2c1.2,0,2.1,0.4,2.9,1.2c0.8,0.8,1.2,1.8,1.2,2.9v2h-2.7v-2c0-0.4-0.1-0.8-0.4-1.1&#10;&#9;&#9;&#9;&#9;c-0.3-0.3-0.7-0.4-1.1-0.4c-0.4,0-0.8,0.1-1.1,0.4c-0.3,0.3-0.4,0.7-0.4,1.1v9.5c0,0.4,0.1,0.8,0.4,1.1c0.3,0.3,0.6,0.4,1.1,0.4&#10;&#9;&#9;&#9;&#9;c0.4,0,0.8-0.1,1.1-0.4c0.3-0.3,0.4-0.6,0.4-1.1v-3.4h-1.5v-2.6h4.2v6.1c0,1.2-0.4,2.1-1.2,2.9&#10;&#9;&#9;&#9;&#9;C392.4,383.5,391.5,383.9,390.3,383.9z" style="fill: rgb(66, 66, 66);"/>
			<path class="st5" d="M403.3,383.7h-2.6v-17.4h2.6V383.7z" style="fill: rgb(66, 66, 66);"/>
			<path class="st5" d="M416.7,383.7h-7.2v-17.4h2.6V381h4.5V383.7z" style="fill: rgb(66, 66, 66);"/>
			<path class="st5" d="M422.4,383.7v-17.4h7.5v2.6H425v4.8h3.5v2.6H425v4.8h4.9v2.6H422.4z" style="fill: rgb(66, 66, 66);"/>
		</g>
	</g>
	
		<path d="M 522 349.600006 H 577.799999 V 796.399994 H 522 V 349.600006 Z" transform="matrix(-1 -7.161351e-11 7.161351e-11 -1 1099.733 1146.0334)" class="st2" style="fill: rgb(188, 138, 95);"/>
	
		<path d="M 522 349.600006 H 577.799999 V 796.399994 H 522 V 349.600006 Z" transform="matrix(7.159701e-11 -1 1 7.159701e-11 -23.1502 1122.8833)" class="st2" style="fill: rgb(188, 138, 95);"/>
	<path d="M 1384.900024 724.400024 H 1652.400024 V 991.900024 H 1384.900024 V 724.400024 Z" class="st6" style="fill: rgb(185, 139, 82);"/>
	<g>
		<path class="st5" d="M1414.3,873.2V844c0-1.5,1.2-2.7,2.7-2.7h0c0,0,0,0,0.1,0h16c1.4,0,2.7,1.2,2.7,2.7c0,1.5-1.3,2.8-2.7,2.8&#10;&#9;&#9;&#9;h-13.4v9.1h11.5c1.5,0,2.7,1.3,2.7,2.7c0,1.5-1.2,2.8-2.7,2.8h-11.5v11.9c0,1.5-1.2,2.7-2.8,2.7&#10;&#9;&#9;&#9;C1415.5,875.9,1414.3,874.7,1414.3,873.2z" style="fill: rgb(66, 66, 66);"/>
		<path class="st5" d="M1467.2,871.8c0.5,1.4-0.3,3-1.7,3.5c-0.2,0-0.6,0.1-1.1,0.1c0,0,0,0,0,0c-0.5,0-1.2-0.1-1.9-0.5&#10;&#9;&#9;&#9;c-0.6-0.4-1.2-1-1.6-1.7c-0.7-1.4-1-3.2-1-5.9c0-0.9-0.2-1.6-0.6-2.1c-0.3-0.5-0.9-1-1.5-1.4c-1-0.7-2.3-1.1-2.8-1.2h-5.8v10.7&#10;&#9;&#9;&#9;c0,1.5-1.2,2.7-2.8,2.7c-1.5,0-2.7-1.2-2.7-2.7V844c0-1.5,1.2-2.7,2.7-2.7c0,0,0,0,0,0h8.8c5.9,0,10.6,4.8,10.6,10.6&#10;&#9;&#9;&#9;c0,3.3-1.5,6.1-3.9,8.1c0.6,0.5,1.2,1.1,1.7,1.8c1,1.4,1.6,3.3,1.6,5.3c0,1.5,0.1,2.4,0.2,2.9&#10;&#9;&#9;&#9;C1466.2,870.4,1466.9,871,1467.2,871.8z M1460.2,851.9c0-2.9-2.3-5.1-5.1-5.1h-6.1V857h6.1C1458,857,1460.2,854.7,1460.2,851.9z" style="fill: rgb(66, 66, 66);"/>
		<path class="st5" d="M1492.8,867.8h-12l-2.4,6.4c-0.4,1.1-1.5,1.7-2.6,1.7c-0.3,0-0.6,0-0.9-0.1c-1.4-0.5-2.1-2.1-1.6-3.6&#10;&#9;&#9;&#9;l10.9-29.2c0.4-1.1,1.5-1.8,2.6-1.7c1.1,0,2.2,0.6,2.6,1.7l10.9,29.2c0.5,1.4-0.2,3-1.6,3.6c-0.2,0.1-0.6,0.1-0.9,0.1&#10;&#9;&#9;&#9;c-1.1,0-2.1-0.6-2.5-1.7L1492.8,867.8z M1490.8,862.3l-4-10.6l-4,10.6H1490.8z" style="fill: rgb(66, 66, 66);"/>
		<path class="st5" d="M1504,858.2c0-9.9,8.2-17.9,18.3-17.9c4.2,0,8.2,1.4,11.3,3.9c1.3,0.9,1.5,2.8,0.5,4c-0.9,1.2-2.8,1.4-4,0.4&#10;&#9;&#9;&#9;c-2.1-1.6-4.9-2.7-7.8-2.7c-3.6,0-6.7,1.3-8.9,3.6c-2.3,2.2-3.7,5.2-3.7,8.6c0,3.3,1.4,6.3,3.7,8.5c2.2,2.3,5.3,3.6,8.9,3.6&#10;&#9;&#9;&#9;c2.5,0,4.8-0.7,6.8-1.9v-6.8h-7.1c-1.5,0-2.8-1.3-2.8-2.8c0-1.6,1.3-2.8,2.8-2.8h9.8c0,0,0,0,0,0c0,0,0,0,0,0&#10;&#9;&#9;&#9;c1.6,0,2.9,1.2,2.9,2.8v10.9c0,0.3-0.1,0.5-0.1,0.8c0,0.1,0,0.1-0.1,0.2v0c-0.1,0.4-0.4,0.8-0.9,1.2c-3.1,2.4-7,3.9-11.2,3.9&#10;&#9;&#9;&#9;C1512.2,875.9,1504,868.1,1504,858.2z" style="fill: rgb(66, 66, 66);"/>
		<path class="st5" d="M1546.2,844c0-1.5,1.2-2.7,2.7-2.7c1.5,0,2.8,1.2,2.8,2.7v29.2c0,1.5-1.3,2.7-2.8,2.7c-1.5,0-2.7-1.2-2.7-2.7&#10;&#9;&#9;&#9;V844z" style="fill: rgb(66, 66, 66);"/>
		<path class="st5" d="M1560.9,873.2V844c0-1.5,1.2-2.7,2.7-2.7s2.8,1.2,2.8,2.7v26.4h13.4c1.4,0,2.7,1.2,2.7,2.8&#10;&#9;&#9;&#9;c0,1.5-1.3,2.7-2.7,2.7h-16c-0.1,0-0.1,0-0.1,0c0,0,0,0,0,0C1562.1,875.9,1560.9,874.7,1560.9,873.2z" style="fill: rgb(66, 66, 66);"/>
		<path class="st5" d="M1588.8,873.2V844c0-1.5,1.2-2.7,2.7-2.7h0c0,0,0,0,0.1,0h16c1.4,0,2.7,1.2,2.7,2.7c0,1.5-1.3,2.8-2.7,2.8&#10;&#9;&#9;&#9;h-13.4v9.1h11.5c1.5,0,2.7,1.3,2.7,2.7c0,1.5-1.2,2.8-2.7,2.8h-11.5v9.1h13.4c1.4,0,2.7,1.2,2.7,2.8c0,1.5-1.3,2.7-2.7,2.7h-16&#10;&#9;&#9;&#9;c-0.1,0-0.1,0-0.1,0l0,0C1590,875.9,1588.8,874.7,1588.8,873.2z" style="fill: rgb(66, 66, 66);"/>
		<path class="st5" d="M1617.6,864v-20c0-1.5,1.2-2.7,2.7-2.7s2.7,1.2,2.7,2.7v20c0,1.5-1.2,2.7-2.7,2.7S1617.6,865.5,1617.6,864z&#10;&#9;&#9;&#9; M1620.3,875.9c-1.5,0-2.7-1.2-2.7-2.7v-1c0-1.5,1.2-2.7,2.7-2.7s2.7,1.2,2.7,2.7v1C1623,874.8,1621.8,875.9,1620.3,875.9z" style="fill: rgb(66, 66, 66);"/>
	</g>
	<path d="M 1544 775 L 1532.699951171875 763.5 L 1522 775 L 1512.199951171875 763.5 L 1504 775 L 1493.300048828125 766.7999877929688 L 1493.300048828125 724.4000244140625 L 1544 724.4000244140625 Z" class="st3" style="fill: rgb(191, 157, 107);"/>
	<path d="M 1544 941.2000122070312 L 1532.699951171875 952.7000122070312 L 1522 941.2000122070312 L 1512.199951171875 952.7000122070312 L 1504 949.4000244140625 L 1493.300048828125 941.2000122070312 L 1493.300048828125 991.9000244140625 L 1544 991.9000244140625 Z" class="st3" style="fill: rgb(191, 157, 107);"/>
	<path d="M 877.400024 277.600006 H 1144.900024 V 545.100006 H 877.400024 V 277.600006 Z" class="st6" style="fill: rgb(185, 139, 82);"/>
	<path d="M 893.799988 294 H 982.299988 V 366.300003 H 893.799988 V 294 Z" class="st7" style="fill: rgb(255, 255, 255);"/>
	<path d="M 900.200012 330.200012 L 976 330.200012" class="st8" style="fill: none; stroke: rgb(66, 66, 66); stroke-width: 4; stroke-miterlimit: 10;"/>
	<path d="M 900.200012 338.399994 L 976 338.399994" class="st8" style="fill: none; stroke: rgb(66, 66, 66); stroke-width: 4; stroke-miterlimit: 10;"/>
	<path d="M 900.200012 346.600006 L 976 346.600006" class="st8" style="fill: none; stroke: rgb(66, 66, 66); stroke-width: 4; stroke-miterlimit: 10;"/>
	<path d="M 900.200012 322 L 976 322" class="st8" style="fill: none; stroke: rgb(66, 66, 66); stroke-width: 4; stroke-miterlimit: 10;"/>
	<path d="M 908.400024 313.700012 L 976 313.700012" class="st8" style="fill: none; stroke: rgb(66, 66, 66); stroke-width: 4; stroke-miterlimit: 10;"/>
	<g>
		<path class="st6" d="M352,796.4v277.7h468.7V894.9C752.3,880.5,420.4,810.2,352,796.4z" style="fill: rgb(185, 139, 82);"/>
		<path class="st9" d="M820.7,796.4H352v0c68.4,13.7,400.4,84,468.7,98.5V796.4z" style="fill: rgb(168, 123, 74);"/>
		<path class="st10" d="M804.2,885.2v-72.3h-88.5v59.9c21.9,4.6,42,8.9,59,12.5H804.2z" style="fill: rgb(239, 238, 237);"/>
		<path class="st7" d="M774.8,885.2c-17.1-3.6-37.1-7.8-59-12.5v12.5H774.8z" style="fill: rgb(255, 255, 255);"/>
		<path d="M 722.099976 849 L 797.900024 849" class="st8" style="fill: none; stroke: rgb(66, 66, 66); stroke-width: 4; stroke-miterlimit: 10;"/>
		<path d="M 722.099976 857.299988 L 797.900024 857.299988" class="st8" style="fill: none; stroke: rgb(66, 66, 66); stroke-width: 4; stroke-miterlimit: 10;"/>
		<path d="M 797.900024 865.5 L 722.099976 865.5" class="st8" style="fill: none; stroke: rgb(66, 66, 66); stroke-width: 4; stroke-miterlimit: 10;"/>
		<path d="M 722.099976 840.799988 L 797.900024 840.799988" class="st8" style="fill: none; stroke: rgb(66, 66, 66); stroke-width: 4; stroke-miterlimit: 10;"/>
		<path d="M 730.299988 832.599976 L 797.900024 832.599976" class="st8" style="fill: none; stroke: rgb(66, 66, 66); stroke-width: 4; stroke-miterlimit: 10;"/>
		<g>
			<g>
				<path class="st5" d="M395,921.7c-6.6,0-11.9,5.3-11.9,11.9h23.9C406.9,927.1,401.6,921.7,395,921.7z" style="fill: rgb(66, 66, 66);"/>
			</g>
			<g>
				<path class="st5" d="M398,948.8c-2.7,0-4.8-2.2-4.8-4.8v-10.2c0-1,0.8-1.8,1.8-1.8c1,0,1.8,0.8,1.8,1.8V944&#10;&#9;&#9;&#9;&#9;&#9;c0,0.6,0.5,1.2,1.2,1.2s1.2-0.5,1.2-1.2v-1.4c0-1,0.8-1.8,1.8-1.8c1,0,1.8,0.8,1.8,1.8v1.4C402.8,946.6,400.6,948.8,398,948.8z" style="fill: rgb(66, 66, 66);"/>
			</g>
		</g>
		<path class="st11" d="M614.2,796.4h-55.8v43.1c18.5,3.9,37.3,7.9,55.8,11.8V796.4z" style="fill: rgb(173, 142, 100);"/>
		<path class="st3" d="M558.4,839.5v234.6h55.8V851.3C595.7,847.4,577,843.4,558.4,839.5z" style="fill: rgb(191, 157, 107);"/>
		<path d="M 368.399994 978.299988 H 421.499992 V 1031.399986 H 368.399994 V 978.299988 Z" class="st4" style="fill: none; stroke: rgb(66, 66, 66); stroke-width: 5; stroke-linecap: round; stroke-linejoin: round; stroke-miterlimit: 10;"/>
		<path d="M 368.399994 908.700012 H 421.499992 V 961.800011 H 368.399994 V 908.700012 Z" class="st4" style="fill: none; stroke: rgb(66, 66, 66); stroke-width: 5; stroke-linecap: round; stroke-linejoin: round; stroke-miterlimit: 10;"/>
		<g>
			<path class="st5" d="M384,990.8l-6.6,9.4h4.3v16.5c0,1.3,1,2.3,2.3,2.3l0,0c1.3,0,2.3-1,2.3-2.3v-16.5h4.9L384,990.8z" style="fill: rgb(66, 66, 66);"/>
			<path class="st5" d="M405.5,990.8l-6.6,9.4h4.3v16.5c0,1.3,1,2.3,2.3,2.3l0,0c1.3,0,2.3-1,2.3-2.3v-16.5h4.9L405.5,990.8z" style="fill: rgb(66, 66, 66);"/>
		</g>
	</g>
	<path d="M 352 796.400024 L 820.700012 894.900024" class="st10" style="fill: rgb(239, 238, 237);"/>
	<g>
		<path d="M 1973.699951171875 991.9000244140625 L 1384.9000244140625 991.9000244140625 L 1973.699951171875 1115.5999755859375 Z" class="st12" style="fill: rgb(170, 139, 97);"/>
		<path d="M 1384.9000244140625 991.9000244140625 L 1362.0999755859375 991.9000244140625 L 1362.0999755859375 1354.199951171875 L 1973.699951171875 1354.199951171875 L 1973.699951171875 1115.5999755859375 Z" class="st3" style="fill: rgb(191, 157, 107);"/>
		<g>
			<path d="M 1501.0999755859375 1016.2999877929688 L 1501.0999755859375 1354.199951171875 L 1556.9000244140625 1354.199951171875 L 1556.9000244140625 1028 Z" class="st5" style="fill: rgb(66, 66, 66);"/>
			<path d="M 1556.9000244140625 991.9000244140625 L 1501.0999755859375 991.9000244140625 L 1501.0999755859375 1016.2999877929688 L 1556.9000244140625 1028 Z" class="st13" style="fill: rgb(48, 48, 48);"/>
			<path d="M 1834.699951171875 991.9000244140625 L 1778.9000244140625 991.9000244140625 L 1778.9000244140625 1074.699951171875 L 1834.699951171875 1086.4000244140625 Z" class="st13" style="fill: rgb(48, 48, 48);"/>
			<path d="M 1778.9000244140625 1074.699951171875 L 1778.9000244140625 1354.199951171875 L 1834.699951171875 1354.199951171875 L 1834.699951171875 1086.4000244140625 Z" class="st5" style="fill: rgb(66, 66, 66);"/>
		</g>
		<g>
			<path d="M 1852.900024 1271.900024 H 1957.200027 V 1334.100025 H 1852.900024 V 1271.900024 Z" class="st4" style="fill: none; stroke: rgb(66, 66, 66); stroke-width: 5; stroke-linecap: round; stroke-linejoin: round; stroke-miterlimit: 10;"/>
			<g>
				<path d="M 1893 1279.599976 H 1899.5 V 1326.299976 H 1893 V 1279.599976 Z" class="st5" style="fill: rgb(66, 66, 66);"/>
				
					<path d="M 1868.400024 1279.599976 H 1874.900024 V 1326.299976 H 1868.400024 V 1279.599976 Z" transform="matrix(-1 -4.491575e-11 4.491575e-11 -1 3743.2607 2605.9546)" class="st5" style="fill: rgb(66, 66, 66);"/>
				
					<path d="M 1878.800049 1279.599976 H 1882.100049 V 1326.299976 H 1878.800049 V 1279.599976 Z" transform="matrix(-1 -4.463642e-11 4.463642e-11 -1 3760.7922 2605.9546)" class="st5" style="fill: rgb(66, 66, 66);"/>
				<path d="M 1921 1279.599976 H 1924.3 V 1326.299976 H 1921 V 1279.599976 Z" class="st5" style="fill: rgb(66, 66, 66);"/>
				
					<path d="M 1903.400024 1279.599976 H 1909.900024 V 1326.299976 H 1903.400024 V 1279.599976 Z" transform="matrix(-1 -4.491575e-11 4.491575e-11 -1 3813.3865 2605.9546)" class="st5" style="fill: rgb(66, 66, 66);"/>
				
					<path d="M 1935.199951 1279.599976 H 1941.699951 V 1326.299976 H 1935.199951 V 1279.599976 Z" transform="matrix(-1 -4.491575e-11 4.491575e-11 -1 3876.9919 2605.9546)" class="st5" style="fill: rgb(66, 66, 66);"/>
			</g>
		</g>
	</g>
	<g>
		<path d="M 1307.800048828125 907.4000244140625 L 861 907.4000244140625 L 861 907.5999755859375 L 1307.800048828125 1001.5 Z" class="st14" style="fill: rgb(168, 125, 78);"/>
		<path d="M 861 907.5999755859375 L 861 1354.199951171875 L 1307.800048828125 1354.199951171875 L 1307.800048828125 1001.5 Z" class="st6" style="fill: rgb(185, 139, 82);"/>
		<g>
			<g>
				<g>
					<path d="M 1187.900024 1234.300049 H 1274.900024 V 1321.300049 H 1187.900024 V 1234.300049 Z" class="st4" style="fill: none; stroke: rgb(66, 66, 66); stroke-width: 5; stroke-linecap: round; stroke-linejoin: round; stroke-miterlimit: 10;"/>
					<path class="st5" d="M1231.4,1250.6l-19.9,28.2h13v19.5c0,3.8,3.1,6.8,6.8,6.8l0,0c3.8,0,6.8-3.1,6.8-6.8v-19.5h14.6&#10;&#9;&#9;&#9;&#9;&#9;&#9;L1231.4,1250.6z" style="fill: rgb(66, 66, 66);"/>
				</g>
			</g>
			<g>
				<path class="st5" d="M1190.5,1225.9h-2.6v-17.4h7.5v2.6h-4.9v4.8h3.5v2.6h-3.5V1225.9z" style="fill: rgb(66, 66, 66);"/>
				<path class="st5" d="M1205.2,1208.5c1.5,0,2.5,0.4,3.2,1.2c0.6,0.7,0.9,1.7,0.9,2.9v2.5c0,1.2-0.5,2.3-1.4,3.1l1.9,7.6h-2.8&#10;&#9;&#9;&#9;&#9;&#9;l-1.6-6.6c-0.1,0-0.2,0-0.2,0h-1.5v6.6h-2.6v-17.4H1205.2z M1206.8,1212.6c0-1-0.5-1.5-1.5-1.5h-1.6v5.6h1.6&#10;&#9;&#9;&#9;&#9;&#9;c0.4,0,0.8-0.1,1.1-0.4c0.3-0.3,0.4-0.7,0.4-1.1V1212.6z" style="fill: rgb(66, 66, 66);"/>
				<path class="st5" d="M1219.3,1221.9l-0.6,4h-2.7l3-17.4h3.6l2.9,17.4h-2.8l-0.6-4H1219.3z M1220.7,1212.4l-1,6.9h1.9&#10;&#9;&#9;&#9;&#9;&#9;L1220.7,1212.4z" style="fill: rgb(66, 66, 66);"/>
				<path class="st5" d="M1235.3,1226.1c-1.2,0-2.1-0.4-3-1.2c-0.8-0.8-1.2-1.8-1.2-2.9v-9.5c0-1.2,0.4-2.1,1.2-3&#10;&#9;&#9;&#9;&#9;&#9;c0.8-0.8,1.8-1.2,2.9-1.2c1.2,0,2.1,0.4,2.9,1.2c0.8,0.8,1.2,1.8,1.2,2.9v2h-2.7v-2c0-0.4-0.1-0.8-0.4-1.1&#10;&#9;&#9;&#9;&#9;&#9;c-0.3-0.3-0.7-0.4-1.1-0.4c-0.4,0-0.8,0.1-1.1,0.4c-0.3,0.3-0.4,0.7-0.4,1.1v9.5c0,0.4,0.1,0.8,0.4,1.1c0.3,0.3,0.6,0.4,1.1,0.4&#10;&#9;&#9;&#9;&#9;&#9;c0.4,0,0.8-0.1,1.1-0.4c0.3-0.3,0.4-0.6,0.4-1.1v-3.4h-1.5v-2.6h4.2v6.1c0,1.2-0.4,2.1-1.2,2.9&#10;&#9;&#9;&#9;&#9;&#9;C1237.4,1225.7,1236.4,1226.1,1235.3,1226.1z" style="fill: rgb(66, 66, 66);"/>
				<path class="st5" d="M1248.3,1225.9h-2.6v-17.4h2.6V1225.9z" style="fill: rgb(66, 66, 66);"/>
				<path class="st5" d="M1261.7,1225.9h-7.2v-17.4h2.6v14.8h4.5V1225.9z" style="fill: rgb(66, 66, 66);"/>
				<path class="st5" d="M1267.4,1225.9v-17.4h7.5v2.6h-4.9v4.8h3.5v2.6h-3.5v4.8h4.9v2.6H1267.4z" style="fill: rgb(66, 66, 66);"/>
			</g>
		</g>
		<path d="M 1112.300048828125 907.4000244140625 L 1056.5 907.4000244140625 L 1056.5 948.5999755859375 L 1112.300048828125 960.4000244140625 Z" class="st15" style="fill: rgb(173, 141, 99);"/>
		<path d="M 1056.5 948.5999755859375 L 1056.5 1354.199951171875 L 1112.300048828125 1354.199951171875 L 1112.300048828125 960.4000244140625 Z" class="st3" style="fill: rgb(191, 157, 107);"/>
	</g>
	<g>
		<g>
			<g>
				<path d="M 1679.5 545.4000244140625 L 1679.5 991.9000244140625 L 1957.199951171875 991.9000244140625 L 1957.199951171875 603.7000122070312 Z" class="st6" style="fill: rgb(185, 139, 82);"/>
				<path d="M 1957.199951171875 545.4000244140625 L 1679.5 545.4000244140625 L 1957.199951171875 603.7000122070312 Z" class="st16" style="fill: rgb(168, 123, 72);"/>
			</g>
			<g>
				<path d="M 1843.900024 900.799988 H 1932.400024 V 973.099991 H 1843.900024 V 900.799988 Z" class="st7" style="fill: rgb(255, 255, 255);"/>
			</g>
			<g>
				<path d="M 1850.300049 935 H 1926.100052 V 939 H 1850.300049 V 935 Z" class="st5" style="fill: rgb(66, 66, 66);"/>
			</g>
			<g>
				<path d="M 1850.300049 943.200012 H 1926.100052 V 947.200012 H 1850.300049 V 943.200012 Z" class="st5" style="fill: rgb(66, 66, 66);"/>
			</g>
			<g>
				<path d="M 1850.300049 951.400024 H 1926.100052 V 955.400024 H 1850.300049 V 951.400024 Z" class="st5" style="fill: rgb(66, 66, 66);"/>
			</g>
			<g>
				<path d="M 1850.300049 926.700012 H 1926.100052 V 930.700012 H 1850.300049 V 926.700012 Z" class="st5" style="fill: rgb(66, 66, 66);"/>
			</g>
			<g>
				<path d="M 1858.5 918.5 H 1926 V 922.5 H 1858.5 V 918.5 Z" class="st5" style="fill: rgb(66, 66, 66);"/>
			</g>
			<g>
				<g>
					<g>
						<path class="st5" d="M1818.4,574.9c-6.6,0-11.9,5.3-11.9,11.9h23.9C1830.3,580.2,1825,574.9,1818.4,574.9z" style="fill: rgb(66, 66, 66);"/>
					</g>
				</g>
				<g>
					<g>
						<path class="st5" d="M1824.4,593.9c-1,0-1.8,0.8-1.8,1.8v1.4c0,0.6-0.5,1.2-1.2,1.2c-0.6,0-1.2-0.5-1.2-1.2v-10.2&#10;&#9;&#9;&#9;&#9;&#9;&#9;&#9;c0-1-0.8-1.8-1.8-1.8c-1,0-1.8,0.8-1.8,1.8v10.2c0,2.7,2.2,4.8,4.8,4.8c2.7,0,4.8-2.2,4.8-4.8v-1.4&#10;&#9;&#9;&#9;&#9;&#9;&#9;&#9;C1826.2,594.7,1825.4,593.9,1824.4,593.9z" style="fill: rgb(66, 66, 66);"/>
					</g>
				</g>
			</g>
			<g>
				<g>
					
						<path d="M 1790.5 696.700012 H 1846.299999 V 974.400024 H 1790.5 V 696.700012 Z" transform="matrix(4.450579e-11 -1 1 4.450579e-11 982.8196 2653.9541)" class="st3" style="fill: rgb(191, 157, 107);"/>
				</g>
				<g>
					
						<path d="M 1790.5 585.099976 H 1846.299999 V 862.799988 H 1790.5 V 585.099976 Z" transform="matrix(4.450579e-11 -1 1 4.450579e-11 1094.4786 2542.2952)" class="st3" style="fill: rgb(191, 157, 107);"/>
				</g>
			</g>
			<g>
				<path class="st5" d="M1772.9,565v47.5h-48.1v-48.1h45l-23.8-5h-23.7c-1.4,0-2.5,1.1-2.5,2.5V615c0,1.4,1.1,2.5,2.5,2.5h53.1&#10;&#9;&#9;&#9;&#9;&#9;c1.4,0,2.5-1.1,2.5-2.5V566L1772.9,565z" style="fill: rgb(66, 66, 66);"/>
				<path class="st13" d="M1772.9,564.3v0.7l5,1.1v-4.2c0-1.4-1.1-2.5-2.5-2.5h-29.5l23.8,5H1772.9z" style="fill: rgb(48, 48, 48);"/>
			</g>
			<g>
				<path class="st5" d="M1842.5,579.6v32.9h-48.1v-43l-5-1.1V615c0,1.4,1.1,2.5,2.5,2.5h53.1c1.4,0,2.5-1.1,2.5-2.5v-34.3&#10;&#9;&#9;&#9;&#9;&#9;L1842.5,579.6z" style="fill: rgb(66, 66, 66);"/>
				<path class="st13" d="M1794.3,564.3h48.1v15.3l5,1.1v-18.8c0-1.4-1.1-2.5-2.5-2.5h-53.1c-1.4,0-2.5,1.1-2.5,2.5v6.6l5,1.1V564.3&#10;&#9;&#9;&#9;&#9;&#9;z" style="fill: rgb(48, 48, 48);"/>
			</g>
			<g>
				<g>
					<path class="st5" d="M1731.2,583.7h4.3v16.5c0,1.3,1,2.3,2.3,2.3s2.3-1,2.3-2.3v-16.5h4.9l-7.1-9.4L1731.2,583.7z" style="fill: rgb(66, 66, 66);"/>
				</g>
				<g>
					<path class="st5" d="M1752.7,583.7h4.3v16.5c0,1.3,1,2.3,2.3,2.3s2.3-1,2.3-2.3v-16.5h4.9l-7.1-9.4L1752.7,583.7z" style="fill: rgb(66, 66, 66);"/>
				</g>
			</g>
		</g>
	</g>
	<g>
		<path d="M 1365.300048828125 545.0999755859375 L 877.4000244140625 545.0999755859375 L 1365.300048828125 647.5999755859375 Z" class="st11" style="fill: rgb(173, 142, 100);"/>
		<path d="M 877.4000244140625 545.0999755859375 L 844.5 545.0999755859375 L 844.5 907.4000244140625 L 1365.300048828125 907.4000244140625 L 1365.300048828125 647.5999755859375 Z" class="st3" style="fill: rgb(191, 157, 107);"/>
		<g>
			<path d="M 1077 587 L 1077 907.4000244140625 L 1132.800048828125 907.4000244140625 L 1132.800048828125 598.7999877929688 Z" class="st5" style="fill: rgb(66, 66, 66);"/>
			<path d="M 1132.800048828125 545.0999755859375 L 1077 545.0999755859375 L 1077 587 L 1132.800048828125 598.7999877929688 Z" class="st13" style="fill: rgb(48, 48, 48);"/>
		</g>
		<g>
			
				<path d="M 869.200012 816.799988 H 973.500015 V 878.999989 H 869.200012 V 816.799988 Z" transform="matrix(-1 -4.489798e-11 4.489798e-11 -1 1842.6813 1695.887)" class="st4" style="fill: none; stroke: rgb(66, 66, 66); stroke-width: 5; stroke-linecap: round; stroke-linejoin: round; stroke-miterlimit: 10;"/>
			<g>
				
					<path d="M 926.799988 824.599976 H 933.299988 V 871.299976 H 926.799988 V 824.599976 Z" transform="matrix(-1 -4.491575e-11 4.491575e-11 -1 1860.2126 1695.887)" class="st5" style="fill: rgb(66, 66, 66);"/>
				<path d="M 951.5 824.599976 H 958 V 871.299976 H 951.5 V 824.599976 Z" class="st5" style="fill: rgb(66, 66, 66);"/>
				<path d="M 944.400024 824.599976 H 947.700024 V 871.299976 H 944.400024 V 824.599976 Z" class="st5" style="fill: rgb(66, 66, 66);"/>
				
					<path d="M 902.200012 824.599976 H 905.500012 V 871.299976 H 902.200012 V 824.599976 Z" transform="matrix(-1 -4.519464e-11 4.519464e-11 -1 1807.6184 1695.887)" class="st5" style="fill: rgb(66, 66, 66);"/>
				<path d="M 916.5 824.599976 H 923 V 871.299976 H 916.5 V 824.599976 Z" class="st5" style="fill: rgb(66, 66, 66);"/>
				<path d="M 884.599976 824.599976 H 891.099976 V 871.299976 H 884.599976 V 824.599976 Z" class="st5" style="fill: rgb(66, 66, 66);"/>
			</g>
		</g>
	</g>
	<g>
		<path d="M 254.8000030517578 1074.0999755859375 L 254.8000030517578 1354.199951171875 L 844.5 1354.199951171875 L 844.5 1172.5999755859375 L 352 1074.0999755859375 Z" class="st2" style="fill: rgb(188, 138, 95);"/>
		<path d="M 352 1074.0999755859375 L 844.5 1172.5999755859375 L 844.5 1074.0999755859375 Z" class="st17" style="fill: rgb(173, 125, 89);"/>
		<g>
			<g>
				<path class="st5" d="M425.7,1247.8l-8.3,1.5l-9.7-54.9l23.6-4.2l1.5,8.3l-15.3,2.7l2.6,15l11.2-2l1.5,8.3l-11.2,2L425.7,1247.8z&#10;&#9;&#9;&#9;&#9;&#9;" style="fill: rgb(66, 66, 66);"/>
				<path class="st5" d="M462.4,1184.8c4.6-0.8,8.2-0.1,10.8,2c2.3,1.9,3.8,4.8,4.5,8.8l1.4,8c0.7,3.9-0.2,7.4-2.7,10.6l10.4,22.9&#10;&#9;&#9;&#9;&#9;&#9;l-8.9,1.6l-8.7-19.8c-0.2,0-0.5,0.1-0.7,0.1l-4.8,0.8l3.6,20.7l-8.3,1.5l-9.7-54.9L462.4,1184.8z M469.7,1197.1&#10;&#9;&#9;&#9;&#9;&#9;c-0.6-3.2-2.4-4.5-5.6-3.9l-5,0.9l3.1,17.6l5-0.9c1.3-0.2,2.3-0.9,3.1-2c0.8-1.1,1-2.3,0.8-3.6L469.7,1197.1z" style="fill: rgb(66, 66, 66);"/>
				<path class="st5" d="M514.2,1219.2l0.2,13l-8.6,1.5l-0.3-56.5l11.4-2l18.9,53.3l-8.7,1.5l-4.2-12.3L514.2,1219.2z M513.3,1188.7&#10;&#9;&#9;&#9;&#9;&#9;l0.7,22.2l6.1-1.1L513.3,1188.7z" style="fill: rgb(66, 66, 66);"/>
				<path class="st5" d="M574.4,1189l-13.2,2.3l1.5,8.3l4.6-0.8l1.9,10.8c0.2,1.3,0,2.5-0.8,3.6c-0.8,1.1-1.8,1.7-3.1,2&#10;&#9;&#9;&#9;&#9;&#9;c-1.3,0.2-2.5,0-3.6-0.8c-1.1-0.8-1.7-1.8-2-3.1l-5.3-30c-0.2-1.3,0-2.5,0.8-3.6c0.8-1.1,1.8-1.8,3.1-2c1.3-0.2,2.5,0,3.6,0.8&#10;&#9;&#9;&#9;&#9;&#9;c1.1,0.8,1.8,1.8,2,3.1l1.1,6.4l8.6-1.5l-1.1-6.3c-0.6-3.6-2.5-6.5-5.5-8.6c-3-2.1-6.3-2.9-10-2.2c-3.6,0.6-6.5,2.5-8.6,5.5&#10;&#9;&#9;&#9;&#9;&#9;c-2.1,3-2.9,6.3-2.2,10l5.3,30c0.6,3.6,2.5,6.4,5.5,8.6c3,2.1,6.3,2.9,10,2.2c3.6-0.6,6.4-2.4,8.6-5.4c2.1-3,2.9-6.3,2.2-10&#10;&#9;&#9;&#9;&#9;&#9;L574.4,1189z" style="fill: rgb(66, 66, 66);"/>
				
					<path d="M 594.5 1161.099976 H 602.9 V 1216.799976 H 594.5 V 1161.099976 Z" transform="matrix(0.9848 -0.1736 0.1736 0.9848 -197.3712 122.0336)" class="st5" style="fill: rgb(66, 66, 66);"/>
				<path d="M 634.2999877929688 1202.5 L 626.0999755859375 1155.9000244140625 L 617.7999877929688 1157.4000244140625 L 627.4000244140625 1212.199951171875 L 650 1208.300048828125 L 648.5999755859375 1200 Z" class="st5" style="fill: rgb(66, 66, 66);"/>
				<path d="M 674.7999877929688 1195.300048828125 L 672.2000122070312 1180.300048828125 L 683.4000244140625 1178.4000244140625 L 681.9000244140625 1170 L 670.7000122070312 1172 L 668.0999755859375 1157 L 683.4000244140625 1154.300048828125 L 681.9000244140625 1146 L 658.2999877929688 1150.199951171875 L 668 1205.0999755859375 L 691.5999755859375 1200.9000244140625 L 690.0999755859375 1192.5999755859375 Z" class="st5" style="fill: rgb(66, 66, 66);"/>
			</g>
			<g>
				<path d="M 679.0999755859375 1129.9000244140625 L 677.5999755859375 1121.5999755859375 L 630.7000122070312 1129.800048828125 L 653.5 1134.4000244140625 Z" class="st13" style="fill: rgb(48, 48, 48);"/>
				<path d="M 630.7000122070312 1129.800048828125 L 403.3999938964844 1169.9000244140625 L 404.8999938964844 1178.199951171875 L 653.5 1134.4000244140625 Z" class="st5" style="fill: rgb(66, 66, 66);"/>
				
					<path d="M 418.899994 1241.300049 H 697.299988 V 1249.700048 H 418.899994 V 1241.300049 Z" transform="matrix(0.9848 -0.1736 0.1736 0.9848 -207.802 115.8363)" class="st5" style="fill: rgb(66, 66, 66);"/>
			</g>
		</g>
		<path d="M 364.79998779296875 1074.0999755859375 L 352 1074.0999755859375 L 364.79998779296875 1076.699951171875 Z" class="st15" style="fill: rgb(173, 141, 99);"/>
		<path d="M 352 1074.0999755859375 L 309 1074.0999755859375 L 309 1354.199951171875 L 364.79998779296875 1354.199951171875 L 364.79998779296875 1076.699951171875 Z" class="st3" style="fill: rgb(191, 157, 107);"/>
		<path d="M 790.4000244140625 1074.0999755859375 L 734.5999755859375 1074.0999755859375 L 734.5999755859375 1150.5999755859375 L 790.4000244140625 1161.800048828125 Z" class="st15" style="fill: rgb(173, 141, 99);"/>
		<path d="M 734.5999755859375 1150.5999755859375 L 734.5999755859375 1354.199951171875 L 790.4000244140625 1354.199951171875 L 790.4000244140625 1161.800048828125 Z" class="st3" style="fill: rgb(191, 157, 107);"/>
		<g>
			<path d="M 671.900024 1294.5 H 715.100025 V 1337.700001 H 671.900024 V 1294.5 Z" class="st4" style="fill: none; stroke: rgb(66, 66, 66); stroke-width: 5; stroke-linecap: round; stroke-linejoin: round; stroke-miterlimit: 10;"/>
			<g>
				<path class="st5" d="M684.6,1304.7l-5.4,7.6h3.5v13.4c0,1,0.8,1.9,1.9,1.9l0,0c1,0,1.9-0.8,1.9-1.9v-13.4h4L684.6,1304.7z" style="fill: rgb(66, 66, 66);"/>
				<path class="st5" d="M702.1,1304.7l-5.4,7.6h3.5v13.4c0,1,0.8,1.9,1.9,1.9l0,0c1,0,1.9-0.8,1.9-1.9v-13.4h4L702.1,1304.7z" style="fill: rgb(66, 66, 66);"/>
			</g>
		</g>
		<g>
			<path d="M 612.700012 1294.5 H 655.900013 V 1337.700001 H 612.700012 V 1294.5 Z" class="st4" style="fill: none; stroke: rgb(66, 66, 66); stroke-width: 5; stroke-linecap: round; stroke-linejoin: round; stroke-miterlimit: 10;"/>
		</g>
		<path class="st5" d="M644.1,1305.9c0.4-0.5,0-1.2-0.6-1.2h-18.3c-0.6,0-1,0.7-0.6,1.2l9,12v8.2h-0.8c-0.4,0-0.8,0.3-0.8,0.8&#10;&#9;&#9;&#9;c0,0.4,0.3,0.8,0.8,0.8h3.1c0.4,0,0.8-0.3,0.8-0.8c0-0.4-0.3-0.8-0.8-0.8h-0.8v-8.2L644.1,1305.9z M626.7,1306.2H642l-2.9,3.8&#10;&#9;&#9;&#9;h-9.6L626.7,1306.2z" style="fill: rgb(66, 66, 66);"/>
	</g>
</g></g></svg>