<?xml version="1.0" encoding="utf-8"?>
<!-- Generator: Adobe Illustrator 21.0.2, SVG Export Plug-In . SVG Version: 6.00 Build 0)  -->
<svg version="1.1" xmlns="http://www.w3.org/2000/svg" xmlns:xlink="http://www.w3.org/1999/xlink" x="0px" y="0px"
	 viewBox="0 0 2272 1872" enable-background="new 0 0 2272 1872" xml:space="preserve">
<g id="BG">
	<rect y="0" fill="#ACE0F5" width="2272" height="1872"/>
</g>
<g id="books">
	<g>
		<polygon fill="none" points="200.2,214.8 196.6,211 200.2,214.8 		"/>
		<polygon fill="#F15D4F" points="196.6,215.8 196.6,215.8 196.6,215.8 		"/>
		<polygon fill="#F15D4F" points="196.6,310.5 196.6,310.5 196.6,310.5 		"/>
		
			<ellipse transform="matrix(0.8944 -0.4472 0.4472 0.8944 -118.1037 120.7065)" fill="#F15D4F" cx="196.6" cy="310.5" rx="0" ry="0"/>
		<polygon fill="#F15D4F" points="196.6,310.5 196.6,310.5 196.6,310.5 		"/>
		<path fill="#FFFFFF" d="M200.1,314.1l-1.4-1.5C199.1,313.1,199.6,313.6,200.1,314.1z"/>
		<rect x="196.6" y="310.5" fill="#FFFFFF" width="0" height="0"/>
		<path fill="#FFFFFF" d="M198.2,312.2l-1.1-1.2C197.4,311.4,197.8,311.8,198.2,312.2z"/>
		<polygon fill="#FFFFFF" points="196.6,310.5 196.6,310.5 196.6,310.5 		"/>
		<path fill="#F15D4F" d="M196.6,310.5L196.6,310.5c0,0,0.2,0.2,0.5,0.6l1.1,1.2c0.1,0.1,0.3,0.3,0.4,0.5l1.4,1.5
			c0.3,0.3,0.6,0.6,0.8,0.9l0.7,0.7c1.5,1.6,2.7,2.8,2.5,2.7l0,0l242,255.6l0,0L196.6,310.5z"/>
		<path fill="#E74C3D" d="M446.1,574L446.1,574L446.1,574L446.1,574l-242-255.6l0,0c0.2,0.2-1.1-1.1-2.5-2.7l-0.7-0.7
			c-0.3-0.3-0.6-0.6-0.8-0.9c-0.5-0.5-0.9-1-1.4-1.5c-0.1-0.2-0.3-0.3-0.4-0.5c-0.4-0.5-0.8-0.9-1.1-1.2c-0.3-0.3-0.5-0.6-0.5-0.6
			l0,0l0,0l0,0v0l0,0c0,0,0,4.8,0,4.8l249.5,263.5L770,487.8v-4.8L446.1,574z"/>
		<path fill="#FFFFFF" d="M439.3,556.5c1.8,5.8,4.1,11.7,6.9,17.5l0,0l0,0v0h0l314.3-88.4v0v0v-2.3L445.2,572
			c-0.3-0.6-0.5-1.2-0.8-1.8l316-88.9v-6.6L442,564.3c-0.2-0.6-0.5-1.2-0.7-1.8l319.1-89.8v-6.6L439.3,556.5z"/>
		<path fill="#FFFFFF" d="M435.4,540.4c0.3,2.1,0.8,4.2,1.2,6.2l323.8-91.1V449L435.4,540.4z"/>
		<path fill="#FFFFFF" d="M437,548.6c0.5,2,1.1,4.1,1.7,6.1l321.7-90.5v-6.6L437,548.6z"/>
		<path fill="#FFFFFF" d="M434.3,532.1c0.2,2.1,0.4,4.3,0.7,6.4L760.4,447v-6.6L434.3,532.1z"/>
		<path fill="#FFFFFF" d="M434,523.6c0,2.2,0,4.4,0.2,6.5l326.2-91.8v-6.6L434,523.6z"/>
		<path fill="#FFFFFF" d="M446.1,479.4c-7.8,14-11.6,28-12.1,42.2l326.4-91.8v-6.6l-325.9,91.7c0.1-0.7,0.2-1.4,0.3-2.1l325.6-91.6
			v-6.6L436,505.9c0.2-0.7,0.3-1.4,0.5-2.1l324-91.2V406l-321.9,90.6c0.2-0.7,0.5-1.5,0.8-2.2L760.4,404v-6.6l-318.1,89.5
			c0.4-0.8,0.7-1.5,1.1-2.3l317-89.2v-4.5v0L446.1,479.4z"/>
		<path fill="#E74C3D" d="M196.6,310.5L196.6,310.5L446.1,574l0,0c-2.7-5.9-5-11.7-6.9-17.5h0c-0.2-0.6-0.4-1.2-0.6-1.8h0
			c-0.6-2-1.2-4.1-1.7-6.1h0c-0.2-0.6-0.3-1.3-0.4-1.9l0,0c-0.5-2.1-0.9-4.2-1.2-6.2l0,0c-0.1-0.6-0.2-1.3-0.3-1.9h0
			c-0.3-2.1-0.6-4.3-0.7-6.4h0c-0.1-0.7-0.1-1.3-0.1-2l0,0c-0.1-2.2-0.2-4.4-0.2-6.5l0,0c0-0.7,0-1.3,0-2h0
			c0.4-14.2,4.2-28.3,12.1-42.2l314.3-88.4l9.5-2.7v-4.8l-323.8,91.1L200.2,214.8h0l-3.6-3.8v4.8l0,0c0,0,0,0,0,0
			C184.7,248.4,184.7,280,196.6,310.5L196.6,310.5L196.6,310.5z"/>
		<polygon fill="#F15D4F" points="766,478.8 760.4,472.9 760.4,472.9 760.4,474.7 760.4,481.3 760.4,483.3 760.4,485.6 760.4,485.6 
			760.4,485.6 446.1,574 446.1,574 770,482.9 770,482.9 770,482.9 		"/>
		<path fill="#F15D4F" d="M446.1,474.5L770,383.4L520.4,119.9L196.6,211l3.6,3.8L446.1,474.5z M326.5,283.6
			c-5.9,1.7-12.3,0-16.7-4.4l-44.5-44.9c-2.7-2.7-1.5-7.3,2.2-8.3l235.3-66.2c4.4-1.2,9.1,0,12.3,3.3l46.1,46.5
			c2.8,2.8,1.5,7.6-2.3,8.6L326.5,283.6z"/>
		<path fill="#FFCE4B" d="M561.3,209.6L515.2,163c-3.2-3.2-7.9-4.5-12.3-3.3L267.5,226c-3.7,1-4.9,5.6-2.2,8.3l44.5,44.9
			c4.4,4.4,10.7,6.1,16.7,4.4l232.5-65.4C562.8,217.1,564.1,212.4,561.3,209.6z"/>
		<path fill="#E6E7E8" d="M443.4,484.6c-0.4,0.8-0.7,1.5-1.1,2.3l318.1-89.5v-2L443.4,484.6z"/>
		<path fill="#E6E7E8" d="M439.3,494.4c-0.3,0.7-0.5,1.5-0.8,2.2L760.4,406v-2L439.3,494.4z"/>
		<path fill="#E6E7E8" d="M436.5,503.7c-0.2,0.7-0.3,1.4-0.5,2.1l324.5-91.3v-2L436.5,503.7z"/>
		<path fill="#E6E7E8" d="M434.8,512.8c-0.1,0.7-0.2,1.4-0.3,2.1l325.9-91.7v-2L434.8,512.8z"/>
		<path fill="#E6E7E8" d="M434.1,521.6L434.1,521.6c0,0.7,0,1.3,0,2l0,0l326.4-91.8v-2L434.1,521.6z"/>
		<path fill="#E6E7E8" d="M434.2,530.2L434.2,530.2c0,0.7,0.1,1.3,0.1,2h0l326.1-91.8v-2L434.2,530.2z"/>
		<path fill="#E6E7E8" d="M435.1,538.5L435.1,538.5c0.1,0.6,0.2,1.3,0.3,1.9l0,0L760.4,449v-2L435.1,538.5z"/>
		<path fill="#E6E7E8" d="M436.6,546.7L436.6,546.7c0.1,0.6,0.3,1.3,0.4,1.9h0l323.4-91v-2L436.6,546.7z"/>
		<path fill="#E6E7E8" d="M438.7,554.7L438.7,554.7c0.2,0.6,0.4,1.2,0.6,1.8h0l321.2-90.4v-2L438.7,554.7z"/>
		<path fill="#E6E7E8" d="M441.3,562.5c0.2,0.6,0.5,1.2,0.7,1.8l318.4-89.6v-1.9v0v-0.1L441.3,562.5z"/>
		<path fill="#E6E7E8" d="M444.4,570.2c0.3,0.6,0.5,1.2,0.8,1.8l315.2-88.7v-2L444.4,570.2z"/>
	</g>
	<g>
		<polygon fill="none" points="1388.5,750.2 1379.4,740.6 1388,750.1 		"/>
		<polygon fill="#E0E55C" points="1727.5,985.3 1727.5,985.3 1813.1,1075.8 1813.1,1075.8 		"/>
		<path fill="#CAD44D" d="M1813.1,1075.8L1813.1,1075.8L1813.1,1075.8L1813.1,1075.8l-85.6-90.4h0L1813.1,1075.8L1813.1,1075.8
			c-1.2-2.6-2.3-5.2-3.3-7.9l0,0c-0.1-0.2-0.2-0.4-0.3-0.7c-0.7-1.9-1.4-3.9-2-5.8l0,0c-0.2-0.6-0.4-1.2-0.6-1.8h0
			c-0.5-1.6-0.9-3.1-1.3-4.7h0c-0.2-0.6-0.3-1.3-0.4-1.9h0c-0.4-1.6-0.7-3.2-0.9-4.8h0c-0.1-0.6-0.2-1.3-0.3-1.9l0,0
			c-0.2-1.6-0.4-3.3-0.6-4.9h0c-0.1-0.7-0.1-1.3-0.1-2l0,0c-0.1-1.7-0.1-3.4-0.1-5v0c0-0.7,0-1.3,0-2h0c0.1-1.7,0.2-3.5,0.4-5.2l0,0
			c0-0.2,0-0.3,0-0.5c1.1-9.7,4.2-19.4,9.5-29v-4l-227.8-35.6l-196.8-207.9l-0.5-0.1l-8.6-9.5l-3.5,7.9l205.1,215.8l142,20.4
			l90,95.1l267.2-75.2v-4L1813.1,1075.8z"/>
		<path fill="#FFFFFF" d="M1807.5,1061.5c0.6,1.9,1.3,3.8,2,5.8c-0.1-0.4-0.3-0.8-0.4-1.1l263.4-74.1v-5.1L1807.5,1061.5z"/>
		<path fill="#FFFFFF" d="M1803.4,1041.4c0.1,1.6,0.3,3.3,0.6,4.9l268.5-75.6v-5.1L1803.4,1041.4z"/>
		<path fill="#FFFFFF" d="M1803.1,1034.4c0,1.7,0,3.4,0.1,5l269.2-75.8v-5.1L1803.1,1034.4z"/>
		<path fill="#FFFFFF" d="M1803.5,1027.1c-0.2,1.7-0.3,3.5-0.4,5.2l269.3-75.8v-5.1L1803.5,1027.1z"/>
		<path fill="#FFFFFF" d="M1804.3,1048.2c0.3,1.6,0.6,3.2,0.9,4.8l267.3-75.2v-5.1L1804.3,1048.2z"/>
		<path fill="#FFFFFF" d="M1805.7,1054.9c0.4,1.6,0.8,3.1,1.3,4.7l265.5-74.7v-5.1L1805.7,1054.9z"/>
		<path fill="#FFFFFF" d="M1809.8,1067.9c1,2.6,2.1,5.2,3.3,7.9l0,0v0v0h0l259.4-73v-1.7l-260,73.2c-0.3-0.6-0.5-1.2-0.8-1.8
			l260.8-73.4V994L1809.8,1067.9z"/>
		<path fill="#FFFFFF" d="M1813.1,993.7v4c-5.4,9.6-8.5,19.3-9.5,29c0.1-0.5,0.1-1.1,0.2-1.6l268.7-75.6v-5.1l-267.8,75.4
			c0.2-0.7,0.3-1.4,0.5-2.1l267.3-75.2v-5.1l-265.7,74.8c0.2-0.7,0.5-1.5,0.8-2.2l265-74.6v-5.1l-262.6,73.9
			c0.4-0.8,0.7-1.5,1.1-2.3l261.5-73.6v-7.5l-192.1-213.1l-270.1,71.8l58.3,61.6h0L1813.1,993.7z"/>
		<polygon fill="#E0E55C" points="2076.3,996.3 2072.5,992.3 2072.5,992.3 2072.5,994 2072.5,994 2072.5,999.1 2072.5,999.1 
			2072.5,1001.1 2072.5,1001.1 2072.5,1002.8 1813.1,1075.8 1813.1,1075.8 2080.4,1000.6 2080.4,1000.6 2080.4,1000.6 		"/>
		<polygon fill="#E0E55C" points="1668.6,841 1607.2,776.2 1379.4,740.6 1388.5,750.2 1585.3,958.1 1813.1,993.7 		"/>
		<path fill="#E6E7E8" d="M1811,1001.8c-0.4,0.8-0.7,1.5-1.1,2.3l262.6-73.9h0v-2h0L1811,1001.8z"/>
		<path fill="#E6E7E8" d="M1807.5,1009.8c-0.3,0.7-0.5,1.5-0.8,2.2l265.7-74.8h0v-2h0L1807.5,1009.8z"/>
		<path fill="#E6E7E8" d="M1805.2,1017.6c-0.2,0.7-0.3,1.4-0.5,2.1l267.8-75.4l0,0v-2h0L1805.2,1017.6z"/>
		<path fill="#E6E7E8" d="M1803.8,1025.1c-0.1,0.5-0.1,1.1-0.2,1.6c0,0.2,0,0.3,0,0.5l0,0l269-75.7h0v-2h0L1803.8,1025.1z"/>
		<path fill="#E6E7E8" d="M1803.2,1032.3L1803.2,1032.3c0,0.7,0,1.3,0,2v0l269.4-75.8h0v-2h0L1803.2,1032.3z"/>
		<path fill="#E6E7E8" d="M1803.3,1039.4L1803.3,1039.4c0,0.7,0.1,1.3,0.1,2h0l269.1-75.7h0v-2h0L1803.3,1039.4z"/>
		<path fill="#E6E7E8" d="M1804,1046.3L1804,1046.3c0.1,0.6,0.2,1.3,0.3,1.9h0l268.2-75.5l0,0v-2h0L1804,1046.3z"/>
		<path fill="#E6E7E8" d="M1805.2,1053L1805.2,1053c0.1,0.6,0.3,1.3,0.4,1.9h0l266.8-75.1h0v-2h0L1805.2,1053z"/>
		<path fill="#E6E7E8" d="M1807,1059.6L1807,1059.6c0.2,0.6,0.4,1.2,0.6,1.8l0,0l265-74.6h0v-2h0L1807,1059.6z"/>
		<path fill="#E6E7E8" d="M1809.1,1066.1c0.1,0.4,0.3,0.8,0.4,1.1c0.1,0.2,0.2,0.4,0.3,0.7l0,0l262.7-73.9l0,0v-1.7v0V992h0
			L1809.1,1066.1z"/>
		<path fill="#E6E7E8" d="M1811.7,1072.5c0.3,0.6,0.5,1.2,0.8,1.8l260-73.2l0,0v-2h0L1811.7,1072.5z"/>
	</g>
	<g>
		<path fill="#0368B1" d="M1425.9,535.8h-265.9c-6.8,0-12.3-5.5-12.4-12.2c0,0,0,0,0,0s0,0,0,0c0,6.7-5.5,12.2-12.4,12.2H869.5
			c-5.7,0-10.2-4.5-10.2-10.1v13c0,5.6,4.6,10.1,10.2,10.1h265.9c6.8,0,12.4-5.5,12.4-12.2c0,6.8,5.5,12.2,12.4,12.2h265.9
			c5.7,0,10.2-4.5,10.2-10.1v-13C1436.2,531.3,1431.6,535.8,1425.9,535.8z"/>
		<path fill="#1277BD" d="M1425.9,136.9h-265.9c-6.8,0-12.4,5.5-12.4,12.2c0-6.8-5.5-12.2-12.4-12.2H869.5
			c-5.7,0-10.2,4.5-10.2,10.1v13v365.6c0,5.6,4.6,10.1,10.2,10.1h265.9c6.8,0,12.3-5.5,12.4-12.2c-0.2,0.2-23.7,20.3-254,4.9l-3-0.8
			l-1.9-0.5l-4.2-1.1l-1.9-0.5l-4.2-1.1l-1.9-0.5l-4.2-1.1l-1.9-0.5l-1.3-0.3V154.9l1.3-0.4l1.9-0.6l4.2-1.2l1.9-0.6l4.2-1.2
			l1.9-0.6l4.2-1.2l1.9-0.6l3-0.8c231.5-15.5,254,4.9,254,4.9s22.5-20.4,254-4.9l3,0.8l1.9,0.6l4.2,1.2l1.9,0.6l4.2,1.2l1.9,0.6
			l4.2,1.2l1.9,0.6l1.3,0.4v367.3l-1.3,0.3l-1.9,0.5l-4.2,1.1l-1.9,0.5l-4.2,1.1l-1.9,0.5l-4.2,1.1l-1.9,0.5l-3,0.8
			c-230.4,15.4-253.8-4.7-254-4.9c0,6.7,5.5,12.2,12.4,12.2h265.9c5.7,0,10.2-4.5,10.2-10.1V160.1v-13
			C1436.2,141.5,1431.6,136.9,1425.9,136.9z"/>
		<polygon fill="#E6E7E8" points="888.8,149.2 884.6,150.4 884.6,526.2 888.8,527.3 		"/>
		<polygon fill="#E6E7E8" points="869,154.9 869,522.2 870.4,522.5 870.4,154.5 		"/>
		<polygon fill="#E6E7E8" points="872.3,153.9 872.3,523 876.5,524.1 876.5,152.7 		"/>
		<polygon fill="#E6E7E8" points="893.7,147.8 890.7,148.7 890.7,527.8 893.7,528.5 893.7,316 		"/>
		<polygon fill="#E6E7E8" points="878.4,152.2 878.4,524.6 882.7,525.7 882.7,151 		"/>
		<polygon fill="#D1D3D4" points="870.4,154.5 870.4,522.5 872.3,523 872.3,153.9 		"/>
		<polygon fill="#D1D3D4" points="876.5,152.7 876.5,524.1 878.4,524.6 878.4,152.2 		"/>
		<polygon fill="#D1D3D4" points="882.7,151 882.7,525.7 884.6,526.2 884.6,150.4 		"/>
		<polygon fill="#D1D3D4" points="890.7,148.7 888.8,149.2 888.8,527.3 890.7,527.8 		"/>
		<path fill="#FFFFFF" d="M1147.7,523.6c0.2,0.2,23.7,20.3,254,4.9V316V147.8c-231.5-15.5-254,4.9-254,4.9s-22.5-20.4-254-4.9V316
			v212.5C1124.1,543.9,1147.5,523.8,1147.7,523.6C1147.7,523.6,1147.7,523.6,1147.7,523.6C1147.7,523.6,1147.7,523.6,1147.7,523.6z
			 M1146.8,152.8h1.9v370.8h-1.9V152.8z"/>
		<polygon fill="#E6E7E8" points="1423.2,523 1423.2,153.9 1418.9,152.7 1418.9,524.1 		"/>
		<polygon fill="#E6E7E8" points="1401.7,316 1401.7,528.5 1404.7,527.8 1404.7,148.7 1401.7,147.8 		"/>
		<polygon fill="#E6E7E8" points="1417,524.6 1417,152.2 1412.8,151 1412.8,525.7 		"/>
		<polygon fill="#E6E7E8" points="1426.4,522.2 1426.4,154.9 1425.1,154.5 1425.1,522.5 		"/>
		<polygon fill="#E6E7E8" points="1406.6,527.3 1410.9,526.2 1410.9,150.4 1406.6,149.2 		"/>
		<polygon fill="#D1D3D4" points="1425.1,522.5 1425.1,154.5 1423.2,153.9 1423.2,523 		"/>
		<polygon fill="#D1D3D4" points="1418.9,524.1 1418.9,152.7 1417,152.2 1417,524.6 		"/>
		<polygon fill="#D1D3D4" points="1412.8,525.7 1412.8,151 1410.9,150.4 1410.9,526.2 		"/>
		<polygon fill="#D1D3D4" points="1404.7,527.8 1406.6,527.3 1406.6,149.2 1404.7,148.7 		"/>
		<rect x="1146.8" y="152.8" fill="#D1D3D4" width="1.9" height="370.8"/>
	</g>
	<g>
		<path fill="#E6A627" d="M1543.9,375.2c-0.2-0.4-14.6-39.9-2.1-88.1l166,171.6v-6.7l-170.6-176.3v6.7c0,0-17.2,39.4,0,95.6l7.2-2.2
			L1543.9,375.2z"/>
		<path fill="#F8BE37" d="M2123.2,382.5c0.3,3.5,0.6,7.1,1,10.8c0.4,3.8,1,7.8,1.6,11.9L1715.5,551v1.6l-171.1-176.9l-7.2,2.2
			l173.3,186l436.6-166.2L2123.2,382.5z"/>
		<polygon fill="#F8BE37" points="1735.7,448.7 2051,336.7 2050.7,336.5 		"/>
		<polygon fill="#F8B32B" points="1710.5,563.9 1710.5,570.6 2147.1,404.4 2147.1,397.7 		"/>
		<polygon fill="#E6A627" points="1537.2,377.9 1537.2,384.6 1710.5,570.6 1710.5,563.9 		"/>
		<path fill="#E6E7E8" d="M1715,542.1l-0.3,0.1L1544,373.8c-0.3-0.9-0.7-2.2-1.2-3.9c0-0.2-0.1-0.4-0.2-0.5L1715,539.3v-7.5
			l-0.3,0.1l-174.3-171.9c-0.1-0.5-0.2-1-0.3-1.6c-0.1-0.4-0.2-0.9-0.2-1.3c-0.1-0.3-0.1-0.6-0.2-1L1715,529.1v-7.5l-0.3,0.1
			l-176.2-173.8c-0.1-1.1-0.3-2.3-0.4-3.5L1715,518.9v-7.5l-0.3,0.1l-177.2-174.8c-0.1-1.1-0.1-2.2-0.1-3.3L1715,508.7v-7.5
			l-0.3,0.1l-177.5-175c0-1,0-2,0.1-3.1L1715,498.5V491l-0.3,0.1l-177.1-174.7c0.1-1,0.1-1.9,0.2-2.9L1715,488.3v-7.5l-0.3,0.1
			l-176.2-173.8c0.1-0.9,0.2-1.8,0.4-2.8L1715,478.1v-7.5l-0.3,0.1l-174.9-172.4c0.2-0.9,0.3-1.7,0.5-2.6L1715,467.9v-11.8l-7.2,2.6
			l-166-171.6c-12.4,48.2,2,87.7,2.1,88.1l0.6,0.6l171.1,176.9V551l-0.6,0.2V542.1z"/>
		<path fill="#FFFFFF" d="M1715,491v7.5l0.3,0.3l407.4-149.6c0,0.8-0.1,1.6-0.1,2.4L1715,501.2v7.5l0.3,0.3l407.1-149.5
			c0-0.5,0-1,0-1.5c0.1-7.1,0.5-13.5,1.1-19c-0.1,0.7-0.1,1.4-0.2,2.1L1715,491z"/>
		<path fill="#FFFFFF" d="M1715,521.6v7.5l0.3,0.3L2123,379.6c0.1,0.8,0.1,1.5,0.2,2.3L1715,531.9v7.5l0.3,0.3l408.5-150.1
			c0.1,0.8,0.2,1.5,0.2,2.3L1715,542.1v9.2l0.6-0.2l410.2-145.7c-0.6-4.1-1.1-8.1-1.6-11.9c-0.4-3.7-0.8-7.4-1-10.8
			c-0.3-3.7-0.5-7.2-0.6-10.6c0,0,0,0,0,0L1715,521.6z"/>
		<path fill="#FFFFFF" d="M1715,470.6v7.5l0.3,0.3L2125,327.8c-0.1,0.8-0.3,1.7-0.4,2.5L1715,480.8v7.5l0.3,0.3l408.2-149.9
			c0.9-8.1,2.1-14.5,3.3-19.2L1715,470.6z"/>
		<path fill="#FFFFFF" d="M1715,511.4v7.5l0.3,0.3l407.2-149.6c-0.1-2.7-0.1-5.3-0.1-7.8L1715,511.4z"/>
		<path fill="#FFFFFF" d="M1735.7,448.7l-20.8,7.4v11.8l0.3,0.3l412.1-151.4c-0.2,0.8-0.4,1.6-0.7,2.6c1.8-7.2,3.4-10.7,3.4-10.7
			l-79.1,28.1L1735.7,448.7z"/>
		<path fill="#D1D3D4" d="M1715.3,468.1l-0.3-0.3l-174.6-172.2c-0.2,0.9-0.3,1.8-0.5,2.6l174.9,172.4l0.3-0.1l411.7-151.2l0,0
			c0,0,0,0,0-0.1c0.2-0.9,0.4-1.8,0.7-2.6L1715.3,468.1z"/>
		<path fill="#D1D3D4" d="M1538.9,304.4c-0.1,0.9-0.3,1.8-0.4,2.8l176.2,173.8l0.3-0.1l409.6-150.5c0.1-0.9,0.3-1.7,0.4-2.5
			l-409.7,150.5l-0.3-0.3L1538.9,304.4z"/>
		<path fill="#D1D3D4" d="M1715.3,488.5l-0.3-0.3l-177.2-174.7c-0.1,1-0.2,1.9-0.2,2.9l177.1,174.7l0.3-0.1l408.2-150
			c0.1-0.7,0.1-1.4,0.2-2.1c0-0.1,0-0.2,0-0.3l0,0L1715.3,488.5z"/>
		<path fill="#D1D3D4" d="M1537.3,323.2c0,1,0,2.1-0.1,3.1l177.5,175l0.3-0.1l407.5-149.7c0-0.8,0.1-1.6,0.1-2.4l-407.4,149.6
			l-0.3-0.3L1537.3,323.2z"/>
		<path fill="#D1D3D4" d="M1715.3,509l-0.3-0.3l-177.7-175.2c0,1.1,0.1,2.2,0.1,3.3l177.2,174.8l0.3-0.1l407.3-149.6
			c0-0.8,0-1.6,0-2.4L1715.3,509z"/>
		<path fill="#D1D3D4" d="M1715.3,519.2l-0.3-0.3l-176.9-174.5c0.1,1.2,0.3,2.4,0.4,3.5l176.2,173.8l0.3-0.1l407.5-149.7
			c0,0,0,0,0,0c0-0.8,0-1.5-0.1-2.3L1715.3,519.2z"/>
		<path fill="#D1D3D4" d="M1539.7,356.3c0.1,0.3,0.1,0.6,0.2,1c0.1,0.4,0.2,0.9,0.2,1.3c0.1,0.5,0.2,1.1,0.3,1.6L1714.7,532l0.3-0.1
			l408.1-149.9c-0.1-0.8-0.1-1.5-0.2-2.3l-407.7,149.8l-0.3-0.3L1539.7,356.3z"/>
		<path fill="#D1D3D4" d="M1542.7,369.4c0.1,0.2,0.1,0.4,0.2,0.5c0.5,1.7,0.9,3.1,1.2,3.9l170.7,168.3l0.3-0.1L2124,391.8
			c-0.1-0.8-0.2-1.5-0.2-2.3l-408.5,150.1l-0.3-0.3L1542.7,369.4z"/>
		<polygon fill="#F8BE37" points="1707.8,451.9 2147.1,295.5 1929.1,157.1 1537.2,275.7 		"/>
		<polygon fill="#F8B32B" points="1707.8,451.9 1707.8,458.6 1715,456.1 1735.7,448.7 2050.7,336.5 2147.1,302.1 2147.1,295.5 		"/>
	</g>
	<g>
		<path fill="#B68234" d="M167,1595.5c-0.2-0.4-14.3-39.2-2.1-86.5l-4.5-4.7c0,0-16.9,38.7,0,94l7.2-2.2L167,1595.5z"/>
		<path fill="#E9A327" d="M737.4,1611.8c0.5,4.3,1,8.8,1.7,13.4l-403.4,143.3v1.4l-168.1-173.8l-7.2,2.2l170.4,182.9l429.3-163.4
			l-23.5-14.9c0.2,2.3,0.4,4.6,0.6,7C737.3,1610.5,737.3,1611.1,737.4,1611.8z"/>
		<polygon fill="#925829" points="330.8,1787.7 760.1,1624.3 760.1,1617.7 330.8,1781.2 		"/>
		<polygon fill="#975F2B" points="160.4,1598.3 160.4,1604.9 330.8,1787.7 330.8,1781.2 		"/>
		<path fill="#D9DBDC" d="M328.1,1677.6L164.9,1509c-12.2,47.3,2,86.1,2.1,86.5l0.6,0.6l168.1,173.8v-1.4l-0.5,0.2v-9.2l-0.2,0.1
			L167,1594c-0.3-0.9-0.7-2.2-1.2-3.9l169.4,167v-7.7l-0.2,0.1l-171.4-169.1c0,0,0,0,0-0.1c-0.2-1-0.4-2.1-0.6-3.3l172.3,169.9v-7.7
			l-0.2,0.1l-173.4-171c-0.1-1-0.2-2-0.3-3.1l173.9,171.5v-7.7l-0.2,0.1l-174.3-171.9c-0.1-0.9-0.1-1.9-0.1-2.8L335.2,1727v-7.7
			l-0.2,0.1l-174.6-172.2c0-0.9,0-1.8,0-2.7L335.2,1717v-7.7l-0.2,0.1l-174.2-171.8c0.1-0.8,0.1-1.7,0.2-2.5L335.2,1707v-7.7
			l-0.2,0.1l-173.3-170.9c0.1-0.8,0.2-1.6,0.3-2.4l173.2,170.8v-7.7l-0.2,0.1L163,1519.8c0.1-0.8,0.3-1.5,0.4-2.3l171.7,169.4v-5.2
			l-4.6-4.9L328.1,1677.6z"/>
		<path fill="#FFFFFF" d="M335.2,1699.3v7.7l0.2,0.2l401.4-147.5c0,0.2,0,0.4-0.1,0.6c0.4-3.4,0.8-6.6,1.2-9.4c0,0.1,0,0.3-0.1,0.4
			L335.2,1699.3z"/>
		<path fill="#FFFFFF" d="M335.2,1717l0.2,0.2L736,1570.1c0.2-2.9,0.4-5.6,0.6-8.2l-401.4,147.5V1717z"/>
		<path fill="#FFFFFF" d="M335.2,1757.2l0.2,0.2l401.8-147.6c-0.2-2.4-0.5-4.7-0.6-7c0-0.2,0-0.5-0.1-0.7l-401.3,147.4V1757.2z"/>
		<path fill="#FFFFFF" d="M335.2,1747.1l0.2,0.2l400.9-147.3c-0.2-2.7-0.3-5.3-0.4-7.8l-400.7,147.2V1747.1z"/>
		<path fill="#FFFFFF" d="M335.2,1727l0.2,0.2l400.3-147c0-2.8,0.1-5.5,0.2-8.1l-400.7,147.2V1727z"/>
		<path fill="#FFFFFF" d="M335.2,1737.1l0.2,0.2l400.4-147.1c-0.1-2.5-0.1-4.9-0.1-7.2c0-0.2,0-0.5,0-0.7l-400.5,147.1V1737.1z"/>
		<path fill="#FFFFFF" d="M335.2,1681.7v5.2l0.2,0.2l405.2-148.9c-0.1,0.4-0.2,0.7-0.3,1.1c1.1-4.4,2.1-7.2,2.7-8.5L338.3,1685
			L335.2,1681.7z"/>
		<path fill="#FFFFFF" d="M335.2,1689.3v7.7l0.2,0.2l402.9-148c-0.1,0.3-0.1,0.6-0.2,0.9c0.7-4.1,1.4-7.5,2.1-10.4
			c-0.1,0.3-0.1,0.5-0.2,0.8L335.2,1689.3z"/>
		<path fill="#FFFFFF" d="M335.2,1768.7l0.5-0.2l403.4-143.3c-0.7-4.7-1.2-9.1-1.7-13.4l-402.2,147.8V1768.7z"/>
		<path fill="#D1D3D4" d="M335.4,1687.1l-0.2-0.2l-171.7-169.4c-0.2,0.8-0.3,1.5-0.4,2.3L335,1689.4l0.2-0.1l404.9-148.7
			c0.1-0.3,0.1-0.5,0.2-0.8c0-0.1,0.1-0.2,0.1-0.3c0.1-0.4,0.2-0.8,0.3-1.1L335.4,1687.1z"/>
		<path fill="#D1D3D4" d="M335.4,1697.2l-0.2-0.2L162,1526.1c-0.1,0.8-0.2,1.6-0.3,2.4L335,1699.4l0.2-0.1l402.8-148
			c0-0.1,0-0.3,0.1-0.4c0-0.3,0.1-0.6,0.1-0.8c0.1-0.3,0.1-0.6,0.2-0.9L335.4,1697.2z"/>
		<path fill="#D1D3D4" d="M335.4,1707.2l-0.2-0.2L161,1535.1c-0.1,0.8-0.1,1.7-0.2,2.5L335,1709.4l0.2-0.1l401.4-147.5l0,0
			c0-0.5,0.1-1,0.1-1.5c0-0.2,0-0.4,0.1-0.6L335.4,1707.2z"/>
		<path fill="#D1D3D4" d="M335.2,1717l-174.8-172.4c0,0.9,0,1.8,0,2.7L335,1719.5l0.2-0.1l400.7-147.2c0-0.7,0.1-1.3,0.1-1.9
			c0,0,0-0.1,0-0.1h0l-400.6,147.2L335.2,1717z"/>
		<path fill="#D1D3D4" d="M335.2,1727l-174.7-172.3c0,1,0.1,1.9,0.1,2.8L335,1729.5l0.2-0.1l400.5-147.1l0,0c0-0.7,0-1.4,0-2.1l0,0
			l-400.3,147L335.2,1727z"/>
		<path fill="#D1D3D4" d="M335.2,1737.1l-173.9-171.5c0.1,1,0.2,2.1,0.3,3.1l173.4,171l0.2-0.1l400.7-147.2c0-0.7,0-1.4-0.1-2
			l-400.4,147.1L335.2,1737.1z"/>
		<path fill="#D1D3D4" d="M335.2,1747.1l-172.3-169.9c0.2,1.1,0.4,2.2,0.6,3.3c0,0,0,0,0,0.1L335,1749.6l0.2-0.1l401.3-147.4
			c-0.1-0.7-0.1-1.3-0.1-2l-400.9,147.3L335.2,1747.1z"/>
		<path fill="#D1D3D4" d="M167,1594l168,165.7l0.2-0.1l402.2-147.8c-0.1-0.7-0.1-1.3-0.2-2l-401.8,147.6l-0.2-0.2l-169.4-167
			C166.3,1591.8,166.7,1593.1,167,1594z"/>
		<path fill="#B97F32" d="M167.9,1502.1v-6.6c0,0,0,0,0-0.1l-7.5,2.3l92.7,95.8L167.9,1502.1z"/>
		<polygon fill="#925829" points="328.1,1674 328.1,1677.6 330.6,1676.7 		"/>
		<polygon fill="#975F2B" points="328.1,1677.6 328.1,1674 253,1593.5 160.4,1497.7 160.4,1504.3 164.9,1509 		"/>
		<path fill="#D8812A" d="M175.1,1493.4l-0.6-0.6c-0.2-0.4-14.3-39.2-2.1-86.5l-4.5-4.7c0,0-16.9,38.7,0,93.9c0,0,0,0,0,0.1
			L175.1,1493.4z"/>
		<path fill="#F1A225" d="M744.9,1509c0.5,4.3,1,8.8,1.7,13.4l-403.4,143.3v1.4l-168.1-173.8l-7.2,2.2l170.4,182.9L767.6,1515
			l-23.5-14.9c0.2,2.3,0.4,4.6,0.6,7C744.8,1507.7,744.9,1508.4,744.9,1509z"/>
		<polygon fill="#F1A225" points="363.1,1565.1 673.1,1455 672.8,1454.8 		"/>
		<polygon fill="#A05F2F" points="338.3,1678.4 338.3,1685 743,1530.9 767.6,1521.6 767.6,1515 		"/>
		<polygon fill="#A36430" points="253,1593.5 328.1,1674 330.6,1676.7 335.2,1681.7 338.3,1685 338.3,1678.4 167.9,1495.5 
			167.9,1502.1 		"/>
		<path fill="#D9DBDC" d="M172.4,1406.2c-12.2,47.3,2,86.1,2.1,86.5l0.6,0.6l168.1,173.8v-1.4l-0.5,0.2v-9.2l-0.2,0.1l-168-165.7
			c0,0,0-0.1,0-0.1c-0.3-0.9-0.7-2.2-1.1-3.8l169.4,167v-7.7l-0.2,0.1L171,1477.8c-0.2-1.1-0.4-2.2-0.6-3.3l172.3,169.9v-7.7
			l-0.2,0.1l-173.4-171c-0.1-0.8-0.2-1.6-0.3-2.5c0-0.2,0-0.4-0.1-0.6l173.9,171.5v-7.7l-0.2,0.1l-174.3-171.9
			c-0.1-0.9-0.1-1.9-0.1-2.8l174.7,172.3v-7.7l-0.2,0.1l-174.6-172.2c0-0.4,0-0.8,0-1.2c0-0.5,0-1,0-1.4l174.8,172.4v-7.7l-0.2,0.1
			l-174.2-171.8c0.1-0.8,0.1-1.7,0.2-2.5l174.2,171.8v-7.7l-0.2,0.1l-173.3-170.9c0.1-0.4,0.1-0.9,0.2-1.3c0-0.4,0.1-0.7,0.2-1.1
			l173.2,170.8v-7.7l-0.2,0.1L170.5,1417c0.1-0.8,0.3-1.5,0.4-2.3l171.7,169.4v-11.8l-7.1,2.5L172.4,1406.2z"/>
		<path fill="#FFFFFF" d="M342.7,1586.5v7.7l0.2,0.2l402.9-148c0.5-3.1,1.1-5.8,1.7-8.2c0-0.2,0.1-0.3,0.1-0.5L342.7,1586.5z"/>
		<path fill="#FFFFFF" d="M342.7,1596.6v7.7l0.2,0.2L744.4,1457c0.2-2.3,0.5-4.4,0.8-6.4c0.1-0.7,0.2-1.3,0.3-2L342.7,1596.6z"/>
		<path fill="#FFFFFF" d="M342.7,1606.6v7.7l0.2,0.2l400.6-147.2c0.2-2.9,0.4-5.6,0.6-8.2L342.7,1606.6z"/>
		<path fill="#FFFFFF" d="M342.7,1626.7v7.7l0.2,0.2l400.4-147.1c-0.1-2.7-0.1-5.4-0.1-7.9L342.7,1626.7z"/>
		<path fill="#FFFFFF" d="M342.7,1636.7v7.7l0.2,0.2l400.9-147.3c-0.2-2.7-0.3-5.3-0.4-7.8L342.7,1636.7z"/>
		<path fill="#FFFFFF" d="M342.7,1616.6v7.7l0.2,0.2l400.3-147.1c0-2.8,0.1-5.5,0.2-8.1L342.7,1616.6z"/>
		<path fill="#FFFFFF" d="M342.7,1646.8v7.7l0.2,0.2l401.8-147.6c-0.2-2.4-0.5-4.7-0.6-7c0-0.2,0-0.5-0.1-0.7L342.7,1646.8z"/>
		<path fill="#FFFFFF" d="M363.1,1565.1l-20.3,7.2v11.8l0.2,0.2l405.2-148.9c1.5-5.5,2.7-8.2,2.7-8.2l-77.8,27.6L363.1,1565.1z"/>
		<path fill="#FFFFFF" d="M342.7,1665.9l0.5-0.2l403.4-143.3c-0.7-4.7-1.2-9.1-1.7-13.4l-402.2,147.8V1665.9z"/>
		<path fill="#D1D3D4" d="M343,1584.4l-0.2-0.2L171,1414.8c-0.2,0.8-0.3,1.5-0.4,2.3l171.9,169.6l0.2-0.1l404.9-148.7
			c0.1-0.5,0.2-1,0.4-1.4c0.1-0.3,0.2-0.6,0.2-0.8l0,0L343,1584.4z"/>
		<path fill="#D1D3D4" d="M343,1594.4l-0.2-0.2l-173.2-170.8c-0.1,0.4-0.1,0.7-0.2,1.1c-0.1,0.4-0.1,0.9-0.2,1.3l173.3,170.9
			l0.2-0.1l402.8-147.9l0,0c0.1-0.8,0.2-1.5,0.4-2.2l0,0L343,1594.4z"/>
		<path fill="#D1D3D4" d="M343,1604.5l-0.2-0.2l-174.2-171.8c-0.1,0.8-0.1,1.7-0.2,2.5l174.2,171.8l0.2-0.1l401.4-147.5
			c0.1-0.7,0.1-1.4,0.2-2.1L343,1604.5z"/>
		<path fill="#D1D3D4" d="M343,1614.5l-0.2-0.2L168,1441.9c0,0.5,0,1,0,1.4c0,0.4,0,0.8,0,1.2l174.6,172.2l0.2-0.1l400.7-147.2
			c0-0.7,0.1-1.4,0.1-2.1L343,1614.5z"/>
		<path fill="#D1D3D4" d="M343,1624.5l-0.2-0.2L168,1452c0,1,0.1,1.9,0.1,2.8l174.3,171.9l0.2-0.1l400.5-147.1c0-0.7,0-1.4,0-2.1
			L343,1624.5z"/>
		<path fill="#D1D3D4" d="M343,1634.6l-0.2-0.2l-173.9-171.5c0,0.2,0,0.4,0.1,0.6c0.1,0.8,0.2,1.7,0.3,2.5l173.4,171l0.2-0.1
			l400.7-147.2c0-0.7,0-1.4-0.1-2L343,1634.6z"/>
		<path fill="#D1D3D4" d="M343,1644.6l-0.2-0.2l-172.3-169.9c0.2,1.2,0.4,2.3,0.6,3.3l171.4,169.1l0.2-0.1L744,1499.3
			c-0.1-0.7-0.1-1.3-0.1-2L343,1644.6z"/>
		<path fill="#D1D3D4" d="M173.3,1487.4c0.5,1.6,0.9,2.9,1.1,3.8c0,0,0,0.1,0,0.1l168,165.7l0.2-0.1L744.9,1509
			c-0.1-0.7-0.1-1.3-0.2-2L343,1654.6l-0.2-0.2L173.3,1487.4z"/>
		<path fill="#D97F29" d="M335.6,1568.3l432-153.9l-214.3-136L167.9,1395L335.6,1568.3z M545.3,1301l175.3,111.2L348,1544.9
			l-137.9-142.5L545.3,1301z"/>
		<path fill="#F1A225" d="M342.5,1521.9c2-0.6,4.1-0.9,6.1-0.9c5.3,0,10.5,2,14.4,5.7l312.4-111.3c-2.2-2.3-3.2-5.4-2.9-8.6
			c0.4-3.2,2.1-6,4.7-7.8L555,1321.4c-8.3,2.3-17.2,1.1-24.5-3.4l-278.4,84.2c2.3,3.3,3.1,7.5,2,11.5c-1,4-3.7,7.3-7.4,9.1
			L342.5,1521.9z"/>
		<path fill="#F1A225" d="M348,1544.9l372.6-132.7L545.3,1301l-335.3,101.4L348,1544.9z M243.8,1421c3.8-1.1,6.6-4.1,7.6-7.9
			c1-3.8-0.1-7.7-2.8-10.6l-1.7-1.7l284-85.9l0.6,0.4c7,4.4,15.5,5.6,23.4,3.2l0.6-0.2l128.1,81.3l-2.8,1c-2.9,1-4.9,3.5-5.2,6.6
			c-0.3,3.1,1,5.9,3.6,7.6l2.5,1.6l-319.3,113.7l-0.6-0.7c-4.9-5.1-12.4-6.8-19.1-4.5l-0.9,0.3l-100.2-103.6L243.8,1421z"/>
		<path fill="#D97F29" d="M341.7,1525.2l0.9-0.3c6.7-2.4,14.2-0.6,19.1,4.5l0.6,0.7l319.3-113.7l-2.5-1.6c-2.6-1.7-4-4.5-3.6-7.6
			c0.3-3.1,2.3-5.6,5.2-6.6l2.8-1l-128.1-81.3l-0.6,0.2c-7.9,2.4-16.4,1.2-23.4-3.2l-0.6-0.4l-284,85.9l1.7,1.7
			c2.7,2.8,3.8,6.8,2.8,10.6c-1,3.8-3.8,6.7-7.6,7.9l-2.3,0.7L341.7,1525.2z M254.1,1413.8c1-4,0.3-8.2-2-11.5l278.4-84.2
			c7.4,4.5,16.2,5.7,24.5,3.4l122.3,77.6c-2.6,1.7-4.3,4.6-4.7,7.8c-0.4,3.2,0.7,6.3,2.9,8.6l-312.4,111.3
			c-3.9-3.7-9.1-5.7-14.4-5.7c-2.1,0-4.1,0.3-6.1,0.9l-95.8-99C250.4,1421.1,253.1,1417.9,254.1,1413.8z"/>
		<polygon fill="#A05F2F" points="767.6,1414.4 335.6,1568.3 335.6,1574.9 342.7,1572.4 363.1,1565.1 672.8,1454.8 767.6,1421 		"/>
		<polygon fill="#A36430" points="335.6,1574.9 335.6,1568.3 167.9,1395 167.9,1401.6 172.4,1406.2 		"/>
	</g>
	<g>
		<path fill="#E07129" d="M226.1,1048.5c-0.1-0.4-14-38.3-2-84.5l0.2,0.2L318.8,742l-4.6-4.6l-94.5,222.3c0,0-16.5,37.7,0,91.5
			l7-2.1L226.1,1048.5z"/>
		<path fill="#F08736" d="M783.3,1077.4L390.4,1217v1.5l-163.8-169.3l-7,2.1l170.2,174.4l410.6-146.4l-18.7-12.9
			C782.3,1070,782.7,1073.6,783.3,1077.4z"/>
		<polygon fill="#F0792D" points="389.9,1225.6 389.9,1232 800.5,1085.7 800.5,1079.3 		"/>
		<polygon fill="#E07129" points="219.7,1051.2 219.7,1057.6 389.9,1232 389.9,1225.6 		"/>
		<path fill="#E6E7E8" d="M389.9,1208.3l-0.3,0.1l-163.5-161.2c-0.3-0.9-0.7-2.3-1.3-4.2l165,162.7v-7.2l-0.3,0.1l-166.9-164.6
			c-0.2-1.1-0.5-2.3-0.7-3.6L389.9,1196v-7.2l-0.3,0.1l-168.8-166.5c-0.1-1.1-0.3-2.2-0.4-3.3l169.4,167.1v-7.2l-0.3,0.1
			l-169.7-167.4c0-0.7-0.1-1.3-0.1-2c0-0.3,0-0.7,0-1l170.1,167.8v-7.2l-0.3,0.1l-170-167.6c0-0.9,0-1.9,0-2.9l170.2,167.8v-7.2
			l-0.3,0.1L220,992.3c0.1-0.9,0.1-1.8,0.2-2.7l169.7,167.3v-7.2l-0.3,0.1L220.9,983.4c0.1-0.9,0.2-1.7,0.3-2.6l168.7,166.3v-7.2
			l-0.3,0.1L222.2,974.9c0.1-0.8,0.3-1.6,0.5-2.4l167.2,164.9V1126L224.4,964.3l-0.1,0l-0.2-0.2c-12,46.2,1.9,84.1,2,84.5l0.5,0.6
			l163.8,169.3v-1.5l-0.5,0.2V1208.3z"/>
		<path fill="#FFFFFF" d="M389.9,1169.2v7.2l0.3,0.3L780,1033.5c0-0.5,0-1,0-1.5c0-2.1,0.1-4.2,0.2-6.2L389.9,1169.2z"/>
		<path fill="#FFFFFF" d="M389.9,1179v7.2l0.3,0.3l389.9-143.2c0,0.7,0,1.4,0.1,2.2l-390.3,143.4v7.2l0.3,0.3l390.4-143.4
			c0,0.7,0.1,1.4,0.1,2.2l-390.8,143.6v7.2l0.3,0.3l391.2-143.7c0.1,0.7,0.1,1.4,0.2,2.1l-391.7,143.9v8.8l0.5-0.2l392.8-139.6
			c-0.6-3.8-1-7.4-1.4-11c0-0.1,0-0.3-0.1-0.4c-1.2-11-1.8-20.9-1.8-29.6c0-0.2,0-0.4,0-0.6L389.9,1179z"/>
		<path fill="#D1D3D4" d="M222.7,972.4c-0.2,0.8-0.3,1.6-0.5,2.4L389.7,1140l0.3-0.1l394.3-144.8c0.2-0.9,0.4-1.7,0.6-2.4
			l-394.7,145l-0.3-0.3L222.7,972.4z"/>
		<path fill="#D1D3D4" d="M221.3,980.8c-0.1,0.9-0.2,1.7-0.3,2.6l168.8,166.4l0.3-0.1l392.2-144.1c0.1-0.8,0.3-1.6,0.4-2.4
			l-392.3,144.1l-0.3-0.3L221.3,980.8z"/>
		<path fill="#D1D3D4" d="M220.3,989.6c-0.1,0.9-0.1,1.8-0.2,2.7l169.6,167.3l0.3-0.1l390.9-143.6c0.1-0.8,0.1-1.5,0.2-2.3
			l-390.9,143.6l-0.3-0.3L220.3,989.6z"/>
		<path fill="#D1D3D4" d="M390.2,1166.9l-0.3-0.3L219.7,998.8c0,1,0,1.9,0,2.9l170,167.6l0.3-0.1l390.3-143.4l0,0
			c0-0.8,0.1-1.5,0.1-2.2l0,0L390.2,1166.9z"/>
		<path fill="#D1D3D4" d="M390.2,1176.7l-0.3-0.3l-170.1-167.8c0,0.3,0,0.7,0,1c0,0.7,0.1,1.4,0.1,2l169.7,167.4l0.3-0.1L780,1035.7
			c0-0.7,0-1.5,0-2.2L390.2,1176.7z"/>
		<path fill="#D1D3D4" d="M220.5,1019.2c0.1,1.1,0.2,2.2,0.4,3.3l168.8,166.5l0.3-0.1l390.3-143.4c0-0.7,0-1.5-0.1-2.2l-389.9,143.2
			l-0.3-0.3L220.5,1019.2z"/>
		<path fill="#D1D3D4" d="M222.1,1030.5c0.2,1.3,0.5,2.4,0.7,3.6l166.9,164.6l0.3-0.1L780.8,1055c-0.1-0.7-0.1-1.4-0.1-2.2
			l-390.4,143.4l-0.3-0.3L222.1,1030.5z"/>
		<path fill="#D1D3D4" d="M224.9,1043.1c0.5,1.9,1,3.3,1.3,4.2l163.5,161.2l0.3-0.1l391.7-143.9c-0.1-0.7-0.2-1.4-0.2-2.1
			L390.2,1206l-0.3-0.3L224.9,1043.1z"/>
		<path fill="#FFFFFF" d="M224.4,964.3L389.9,1126v11.3l0.3,0.3l394.7-145c-0.2,0.8-0.4,1.6-0.6,2.4l-394.3,144.8v7.2l0.3,0.3
			l392.3-144.1c-0.1,0.8-0.3,1.5-0.4,2.4l-392.2,144.1v7.2l0.3,0.3l390.9-143.6c-0.1,0.7-0.2,1.5-0.2,2.3l-390.9,143.6v7.2l0.3,0.3
			l390.1-143.3c1.4-26.3,7.1-38.8,7.1-38.8l-187.4-135l-0.4,1L224.4,964.3z"/>
		<polygon fill="#F08736" points="318.8,742 224.3,964.3 224.4,964.3 599.6,850.8 600.1,849.8 695.1,645.8 		"/>
		<polygon fill="#F0792D" points="695.1,645.8 690.4,641.1 314.2,737.4 318.8,742 		"/>
	</g>
	<g>
		<path fill="none" d="M973.2,717.9h1.1v-2.1C974.3,715.7,973.9,716.6,973.2,717.9z"/>
		<rect x="974.3" y="1149.8" fill="#FFFFFF" width="328.8" height="5.6"/>
		<polygon fill="#FFFFFF" points="974.3,1135.5 974.3,1140.3 1303,1140.3 1303,1134.7 974.3,1134.7 		"/>
		<rect x="974.3" y="1119.6" fill="#FFFFFF" width="328.8" height="5.6"/>
		<rect x="974.3" y="1127.2" fill="#FFFFFF" width="328.8" height="5.6"/>
		<rect x="974.3" y="1104.5" fill="#FFFFFF" width="328.8" height="5.7"/>
		<rect x="974.3" y="1112.1" fill="#FFFFFF" width="328.8" height="5.6"/>
		<rect x="974.3" y="1142.3" fill="#FFFFFF" width="328.8" height="5.6"/>
		<rect x="974.3" y="1157.4" fill="#FFFFFF" width="328.8" height="2.7"/>
		<path fill="#19BAB0" d="M1309.2,1160h-6.2H974.3v-2.7v-1.9v-5.6v-1.9v-5.6v-1.9v-4.8v-0.8v-1.9v-5.6v-1.9v-5.6v-1.9v-5.6v-1.9
			v-5.7H1303h6.2v-6.1h-335V717.9h-1.1c0.7-1.3,1.1-2.1,1.1-2.1v-26.7c0,0-10.6,8.1-10.6,28.8v417.6h0c0.3,25,10.5,32.4,10.5,32.4
			h335V1160z"/>
		<path fill="#5BC5C3" d="M974.3,717.9v380.4h335V689.1h-335v26.7V717.9z M1274.3,817.6h-265.2v-57.7h265.2V817.6z"/>
		<rect x="1009.2" y="759.9" fill="#FFCE4B" width="265.2" height="57.7"/>
		<rect x="974.3" y="1110.2" fill="#D1D3D4" width="328.8" height="1.9"/>
		<rect x="974.3" y="1117.7" fill="#D1D3D4" width="328.8" height="1.9"/>
		<rect x="974.3" y="1125.2" fill="#D1D3D4" width="328.8" height="1.9"/>
		<rect x="974.3" y="1132.8" fill="#D1D3D4" width="328.8" height="1.9"/>
		<rect x="974.3" y="1140.3" fill="#D1D3D4" width="328.8" height="1.9"/>
		<rect x="974.3" y="1147.9" fill="#D1D3D4" width="328.8" height="1.9"/>
		<rect x="974.3" y="1155.4" fill="#D1D3D4" width="328.8" height="1.9"/>
	</g>
	<g>
		<polygon fill="none" points="1641.6,1322.9 1638.5,1319.6 1641.6,1322.9 		"/>
		
			<ellipse transform="matrix(0.3647 -0.9311 0.9311 0.3647 -354.8966 2475.9116)" fill="#6F53A2" cx="1637" cy="1498" rx="0" ry="0"/>
		<polygon fill="#6F53A2" points="1637,1498 1637,1498 1637,1498 		"/>
		<polygon fill="#6F53A2" points="1637,1417.7 1637,1417.7 1637,1417.7 		"/>
		<polygon fill="#6F53A2" points="1637,1498 1637,1498 1637,1498 		"/>
		<path fill="#FFFFFF" d="M1637.7,1498.8l-0.3-0.3C1637.5,1498.6,1637.6,1498.7,1637.7,1498.8z"/>
		<polygon fill="#FFFFFF" points="1637,1498 1637,1498 1637,1498 		"/>
		<rect x="1637" y="1498" fill="#FFFFFF" width="0" height="0"/>
		<path fill="#6F53A2" d="M1637.4,1498.5l0.3,0.3c1.3,1.4,3.9,4.1,5.1,5.4l-5.8-6.2l0,0C1637,1498,1637.1,1498.2,1637.4,1498.5z"/>
		<polygon fill="#6F53A2" points="1643.4,1504.8 1643.4,1504.8 1848.6,1721.6 1848.6,1721.6 		"/>
		<path fill="#6F53A2" d="M1643.2,1504.6c0.1,0.1,0.2,0.2,0.2,0.2L1643.2,1504.6z"/>
		<path fill="#66418A" d="M1848.6,1721.6L1848.6,1721.6L1848.6,1721.6L1848.6,1721.6l-205.3-216.8l0,0L1848.6,1721.6L1848.6,1721.6
			c-2.3-4.9-4.2-9.8-5.8-14.7h0c-0.2-0.6-0.4-1.2-0.6-1.8h0c-0.5-1.6-0.9-3.3-1.3-4.9h0c-0.2-0.6-0.3-1.3-0.4-1.9h0
			c-0.4-1.7-0.7-3.3-1-5l0,0c-0.1-0.6-0.2-1.3-0.3-1.9h0c-0.2-1.7-0.4-3.4-0.6-5.1l0,0c-0.1-0.7-0.1-1.3-0.1-2l0,0
			c-0.1-1.7-0.2-3.5-0.1-5.2l0,0c0-0.7,0-1.3,0-2v0c0.1-1.8,0.2-3.6,0.4-5.4h0c0-0.2,0-0.3,0-0.5c1.1-10,4.3-20,9.8-29.8l266.6-75
			l8.1-2.3v-4.1l-274.6,77.3l-205.2-216.8l0,0l-6.4-6.7v4.1l0,0c0,0,0,0,0,0c-10.1,27.6-10.1,54.4,0,80.3c0,0,0,0,0,0l0,0v0l5.8,6.2
			c-1.1-1.2-3.8-4-5.1-5.4c-0.1-0.1-0.2-0.2-0.3-0.3c-0.3-0.3-0.4-0.5-0.4-0.5l0,0l0,0v0v0l0,0c0,0,0,4.1,0,4.1l211.6,223.5
			l274.6-77.3v-4.1L1848.6,1721.6z M1643.3,1504.8c0,0-0.1-0.1-0.2-0.2L1643.3,1504.8z"/>
		<path fill="#FFFFFF" d="M1840.9,1700.1c0.4,1.6,0.8,3.3,1.3,4.9l272.9-76.8v-5.3L1840.9,1700.1z"/>
		<path fill="#FFFFFF" d="M1839.5,1693.2c0.3,1.7,0.6,3.3,1,5l274.7-77.3v-5.3L1839.5,1693.2z"/>
		<path fill="#FFFFFF" d="M1838.3,1678.9c0,1.7,0,3.5,0.1,5.2l276.7-77.9v-5.3L1838.3,1678.9z"/>
		<path fill="#FFFFFF" d="M1838.6,1686.1c0.1,1.7,0.3,3.4,0.6,5.1l276-77.7v-5.3L1838.6,1686.1z"/>
		<path fill="#FFFFFF" d="M1838.7,1671.5c-0.2,1.8-0.3,3.6-0.4,5.4l276.8-77.9v-5.3L1838.7,1671.5z"/>
		<path fill="#FFFFFF" d="M1842.8,1706.8c1.6,4.9,3.5,9.8,5.8,14.7l0,0v0v0h0l266.6-75v-1.8l-267.3,75.2c-0.3-0.6-0.5-1.2-0.8-1.8
			l268.1-75.4v-5.3l-270,76c-0.2-0.6-0.5-1.2-0.7-1.8l270.7-76.2v-5.3L1842.8,1706.8z"/>
		<path fill="#FFFFFF" d="M1848.6,1641.3c-5.5,9.9-8.7,19.8-9.8,29.8c0.1-0.5,0.1-1.1,0.2-1.6l276.2-77.7v-5.3l-275.2,77.4
			c0.2-0.7,0.3-1.4,0.5-2.1l274.7-77.3v-5.3l-273.1,76.8c0.2-0.7,0.5-1.5,0.8-2.2l272.3-76.6v-5.3l-269.9,75.9
			c0.4-0.8,0.7-1.5,1.1-2.3l268.8-75.6v-3.6L1848.6,1641.3z"/>
		<polygon fill="#6F53A2" points="2120.1,1640.9 2115.2,1635.7 2115.2,1635.7 2115.2,1637.5 2115.2,1637.5 2115.2,1642.8 
			2115.2,1642.8 2115.2,1644.8 2115.2,1644.8 2115.2,1646.5 1848.6,1721.6 1848.6,1721.6 2123.2,1644.3 2123.2,1644.3 
			2123.2,1644.3 		"/>
		<polygon fill="#6F53A2" points="1643.4,1420.4 1643.4,1420.4 1848.6,1637.1 2123.2,1559.9 2119.5,1555.9 1850.1,1631.6 
			1642.3,1412.1 1637,1413.6 		"/>
		<path fill="#E6E7E8" d="M1846.4,1645.5c-0.4,0.8-0.7,1.5-1.1,2.3l269.9-75.9l0,0v-2l0,0L1846.4,1645.5z"/>
		<path fill="#E6E7E8" d="M1842.8,1653.8c-0.3,0.7-0.5,1.5-0.8,2.2l273.1-76.8l0,0v-2l0,0L1842.8,1653.8z"/>
		<path fill="#E6E7E8" d="M1840.4,1661.8c-0.2,0.7-0.3,1.4-0.5,2.1l275.2-77.4l0,0v-2l0,0L1840.4,1661.8z"/>
		<path fill="#E6E7E8" d="M1839,1669.5c-0.1,0.5-0.1,1.1-0.2,1.6c0,0.2,0,0.3,0,0.5h0l276.4-77.8l0,0v-2l0,0L1839,1669.5z"/>
		<path fill="#E6E7E8" d="M1838.4,1676.9L1838.4,1676.9c0,0.7,0,1.3,0,2l0,0l276.8-77.9l0,0v-2l0,0L1838.4,1676.9z"/>
		<path fill="#E6E7E8" d="M1838.5,1684.2L1838.5,1684.2c0,0.7,0.1,1.3,0.1,2l0,0l276.6-77.8l0,0v-2l0,0L1838.5,1684.2z"/>
		<path fill="#E6E7E8" d="M1839.2,1691.3L1839.2,1691.3c0.1,0.6,0.2,1.3,0.3,1.9l0,0l275.7-77.6l0,0v-2l0,0L1839.2,1691.3z"/>
		<path fill="#E6E7E8" d="M1840.5,1698.2L1840.5,1698.2c0.1,0.6,0.3,1.3,0.4,1.9h0l274.2-77.2l0,0v-2l0,0L1840.5,1698.2z"/>
		<path fill="#E6E7E8" d="M1842.3,1705L1842.3,1705c0.2,0.6,0.4,1.2,0.6,1.8h0l272.3-76.6l0,0v-2l0,0L1842.3,1705z"/>
		<path fill="#E6E7E8" d="M1844.5,1711.6c0.2,0.6,0.5,1.2,0.7,1.8l270-76l0,0v-1.7l0,0v-0.3l0,0L1844.5,1711.6z"/>
		<path fill="#E6E7E8" d="M1847.1,1718.2c0.3,0.6,0.5,1.2,0.8,1.8l267.3-75.2l0,0v-2l0,0L1847.1,1718.2z"/>
		<polygon fill="#EF5EA1" points="1638.5,1404 1638.5,1404 1638.5,1404 		"/>
		<polygon fill="#EF5EA1" points="1638.5,1323.7 1638.5,1323.7 1638.5,1323.7 		"/>
		<polygon fill="#EF5EA1" points="1638.5,1404 1638.5,1404 1638.5,1404 		"/>
		
			<ellipse transform="matrix(0.7071 -0.7071 0.7071 0.7071 -512.892 1569.8125)" fill="#EF5EA1" cx="1638.5" cy="1404" rx="0" ry="0"/>
		<path fill="#FFFFFF" d="M1641.6,1407.3L1641.6,1407.3l-0.9-1C1640.9,1406.6,1641.3,1406.9,1641.6,1407.3z"/>
		<polygon fill="#FFFFFF" points="1638.5,1404 1638.5,1404 1638.5,1404 		"/>
		
			<ellipse transform="matrix(0.7071 -0.7071 0.7071 0.7071 -512.8919 1569.8126)" fill="#FFFFFF" cx="1638.5" cy="1404" rx="0" ry="0"/>
		<path fill="#FFFFFF" d="M1640,1405.6l-1.3-1.4C1638.9,1404.5,1639.4,1405,1640,1405.6z"/>
		<path fill="#DC4789" d="M1850.1,1631.6l269.3-75.8l5.3-1.5v-4.1l-274.6,77.3l0,0l0,0l0,0l-205.2-216.8v0c0,0,0,0,0,0l205.3,216.8
			v0c-1.3-2.8-2.5-5.7-3.6-8.5c-0.2-0.5-0.4-0.9-0.5-1.4l0,0c-0.6-1.6-1.1-3.2-1.6-4.8l0,0c-0.2-0.6-0.4-1.2-0.6-1.8h0
			c-0.5-1.6-0.9-3.3-1.3-4.9h0c-0.2-0.6-0.3-1.3-0.4-1.9h0c-0.4-1.7-0.7-3.3-1-5h0c-0.1-0.6-0.2-1.3-0.3-1.9h0
			c-0.2-1.7-0.4-3.4-0.6-5.1l0,0c-0.1-0.7-0.1-1.3-0.1-2h0c-0.1-1.7-0.2-3.5-0.1-5.2l0,0c0-0.7,0-1.3,0-2h0c0.1-1.8,0.2-3.6,0.4-5.4
			l0,0c0-0.2,0-0.3,0-0.5c1.1-10,4.3-20,9.8-29.8l214.6-60.4l60-16.9v-4.1l-274.6,77.3l-208.6-220.3l0,0l-3.1-3.2v4.1l0,0
			c0,0,0,0,0,0c-10.1,27.6-10.1,54.4,0,80.3c0,0,0,0,0,0v0l0,0l6.3,6.7c0,0-0.1-0.1-0.1-0.1l0,0c-0.2-0.2-0.5-0.5-0.8-0.9l-0.3-0.4
			c-0.3-0.3-0.6-0.6-0.9-1l-0.7-0.7c-0.1-0.1-0.1-0.1-0.2-0.2l-0.1-0.1l0,0c-0.3-0.3-0.6-0.6-0.9-1c-0.2-0.3-0.5-0.5-0.7-0.7
			c-0.6-0.6-1.1-1.1-1.3-1.4c-0.1-0.1-0.2-0.2-0.2-0.2l0,0l0,0l0,0v0l0,0c0,0,0,4.1,0,4.1l3.8,4L1850.1,1631.6z"/>
		<polygon fill="#EF5EA1" points="2116.7,1541.7 2116.7,1543.5 2116.7,1548.7 2116.7,1550.8 2116.7,1552.5 2116.7,1552.5 
			2116.7,1552.5 1850.1,1627.5 1850.1,1627.5 2124.8,1550.3 2124.8,1550.3 2124.8,1550.3 2121.3,1546.6 2116.7,1541.7 		"/>
		<polygon fill="#EF5EA1" points="1850.1,1547.2 2064.7,1486.9 2064.7,1486.9 		"/>
		<path fill="#EF5EA1" d="M1638.7,1404.2l1.3,1.4c0.2,0.2,0.4,0.5,0.7,0.7l0.9,1l0.1,0.1c0.1,0.1,0.1,0.1,0.2,0.2l0.7,0.7
			c0.3,0.3,0.6,0.7,0.9,1l0.3,0.4c0.4,0.4,0.7,0.7,0.8,0.9l0,0c0.1,0.1,0.1,0.1,0.1,0.1l-6.3-6.7l0,0
			C1638.5,1404,1638.6,1404.1,1638.7,1404.2z"/>
		<path fill="#EF5EA1" d="M1644.9,1410.7C1644.9,1410.8,1644.9,1410.8,1644.9,1410.7L1644.9,1410.7l205.3,216.8v0L1644.9,1410.7z"/>
		<path fill="#FFFFFF" d="M1844.3,1612.8c0.5,1.6,1.1,3.2,1.6,4.8l270.7-76.2v-5.3L1844.3,1612.8z"/>
		<path fill="#FFFFFF" d="M1840.1,1592.1c0.1,1.7,0.3,3.4,0.6,5.1l276-77.7v-5.3L1840.1,1592.1z"/>
		<path fill="#FFFFFF" d="M1840.3,1577.5c-0.2,1.8-0.3,3.6-0.4,5.4l276.8-77.9v-5.3L1840.3,1577.5z"/>
		<path fill="#FFFFFF" d="M1842.4,1606.1c0.4,1.6,0.8,3.3,1.3,4.9l272.9-76.8v-5.3L1842.4,1606.1z"/>
		<path fill="#FFFFFF" d="M1841,1599.2c0.3,1.7,0.6,3.3,1,5l274.7-77.3v-5.3L1841,1599.2z"/>
		<path fill="#FFFFFF" d="M1839.8,1584.9c0,1.7,0,3.5,0.1,5.2l276.7-77.9v-5.3L1839.8,1584.9z"/>
		<path fill="#FFFFFF" d="M1850.1,1547.2c-5.5,9.9-8.7,19.8-9.8,29.8c0.1-0.5,0.1-1.1,0.2-1.6l276.2-77.7v-5.3l-275.2,77.4
			c0.2-0.7,0.3-1.4,0.5-2.1l274.7-77.3v-5.3l-273.1,76.8c0.2-0.7,0.5-1.5,0.8-2.2l272.3-76.6v-5.3l-269.9,75.9
			c0.4-0.8,0.7-1.5,1.1-2.3l268.8-75.6v-3.6l-52,14.6L1850.1,1547.2z"/>
		<path fill="#FFFFFF" d="M2116.7,1552.5L2116.7,1552.5L2116.7,1552.5v-1.8l-267.3,75.2c-0.3-0.6-0.5-1.2-0.8-1.8l268.1-75.4v-5.3
			l-270,76c-0.1-0.1-0.1-0.3-0.2-0.4c1.1,2.8,2.3,5.7,3.6,8.5v0v0l0,0l0,0L2116.7,1552.5z"/>
		<polygon fill="#EF5EA1" points="1850.1,1543.1 2124.8,1465.8 2122.2,1463.1 1851.8,1539.2 1642.7,1318.4 1638.5,1319.6 
			1641.6,1322.9 		"/>
		<path fill="#E6E7E8" d="M1847.9,1551.5c-0.4,0.8-0.7,1.5-1.1,2.3l269.9-75.9v-2L1847.9,1551.5z"/>
		<path fill="#E6E7E8" d="M1844.3,1559.8c-0.3,0.7-0.5,1.5-0.8,2.2l273.1-76.8v-2L1844.3,1559.8z"/>
		<path fill="#E6E7E8" d="M1842,1567.7c-0.2,0.7-0.3,1.4-0.5,2.1l275.2-77.4v-2L1842,1567.7z"/>
		<path fill="#E6E7E8" d="M1840.5,1575.4c-0.1,0.5-0.1,1.1-0.2,1.6c0,0.2,0,0.3,0,0.5l0,0l276.4-77.8v-2L1840.5,1575.4z"/>
		<path fill="#E6E7E8" d="M1839.9,1582.9L1839.9,1582.9c0,0.7,0,1.3,0,2l0,0l276.8-77.9v-2L1839.9,1582.9z"/>
		<path fill="#E6E7E8" d="M1840,1590.2L1840,1590.2c0,0.7,0.1,1.3,0.1,2l0,0l276.6-77.8v-2L1840,1590.2z"/>
		<path fill="#E6E7E8" d="M1840.7,1597.2L1840.7,1597.2c0.1,0.6,0.2,1.3,0.3,1.9h0l275.7-77.6v-2L1840.7,1597.2z"/>
		<path fill="#E6E7E8" d="M1842,1604.2L1842,1604.2c0.1,0.6,0.3,1.3,0.4,1.9h0l274.2-77.2v-2L1842,1604.2z"/>
		<path fill="#E6E7E8" d="M1843.8,1611L1843.8,1611c0.2,0.6,0.4,1.2,0.6,1.8l0,0l272.3-76.6v-2L1843.8,1611z"/>
		<path fill="#E6E7E8" d="M1846,1617.6L1846,1617.6c0.2,0.5,0.3,0.9,0.5,1.4c0.1,0.1,0.1,0.3,0.2,0.4l270-76v-1.7v0v-0.3
			L1846,1617.6z"/>
		<path fill="#E6E7E8" d="M1848.6,1624.2c0.3,0.6,0.5,1.2,0.8,1.8l267.3-75.2v-2L1848.6,1624.2z"/>
		<polygon fill="#FDBA50" points="1640.2,1231.3 1640.2,1231.3 1640.2,1231.3 		"/>
		<polygon fill="#FDBA50" points="1640.2,1311.6 1640.2,1311.6 1640.2,1311.6 		"/>
		<circle fill="#FDBA50" cx="1640.2" cy="1311.6" r="0"/>
		<polygon fill="#FDBA50" points="1640.2,1311.6 1640.2,1311.6 1640.2,1311.6 		"/>
		<path fill="#FFFFFF" d="M1642.3,1313.8l-1.9-2C1640.7,1312.1,1641.4,1312.9,1642.3,1313.8z"/>
		<polygon fill="#FFFFFF" points="1640.2,1311.6 1640.2,1311.6 1640.2,1311.6 		"/>
		<path fill="#FFFFFF" d="M1643.2,1314.8L1643.2,1314.8l-1-1C1642.6,1314.2,1642.9,1314.5,1643.2,1314.8z"/>
		<circle fill="#FFFFFF" cx="1640.2" cy="1311.6" r="0"/>
		<path fill="#DCA63A" d="M1851.8,1539.2l270.4-76.1l4.2-1.2v-4.1l-274.6,77.3l0,0h0v0l-205.2-216.8h0c0,0,0,0,0,0l205.3,216.8l0,0
			c-1.3-2.8-2.5-5.7-3.6-8.5c-0.2-0.5-0.4-0.9-0.5-1.4l0,0c-0.6-1.6-1.1-3.2-1.6-4.8h0c-0.2-0.6-0.4-1.2-0.6-1.8h0
			c-0.5-1.6-0.9-3.3-1.3-4.9h0c-0.2-0.6-0.3-1.3-0.4-1.9l0,0c-0.4-1.7-0.7-3.3-1-5l0,0c-0.1-0.6-0.2-1.3-0.3-1.9h0
			c-0.2-1.7-0.4-3.4-0.6-5.1l0,0c-0.1-0.7-0.1-1.3-0.1-2l0,0c-0.1-1.7-0.2-3.5-0.1-5.2h0c0-0.7,0-1.3,0-2l0,0
			c0.1-1.8,0.2-3.6,0.4-5.4l0,0c0-0.2,0-0.3,0-0.5c1.1-10,4.3-20,9.8-29.8l266.6-75l8.1-2.3v-4.1l-274.6,77.3l-205.2-216.8l0,0
			l-6.4-6.7v4.1l0,0c0,0,0,0,0,0c-10.1,27.6-10.1,54.4,0,80.3c0,0,0,0,0,0v0l0,0l6.3,6.7c0,0-0.1-0.1-0.1-0.1l0,0
			c-0.2-0.2-0.5-0.5-0.8-0.9l-0.3-0.4c-0.3-0.3-0.6-0.6-0.9-1l-1-1h0c-0.3-0.3-0.6-0.7-1-1c0,0,0,0,0,0c-0.9-0.9-1.6-1.7-1.9-2
			c-0.1-0.1-0.2-0.2-0.2-0.2v0l0,0l0,0v0l0,0c0,0,0,4.1,0,4.1l2.6,2.7L1851.8,1539.2z"/>
		<path fill="#FDBA50" d="M1640.3,1311.8l1.9,2c0,0,0,0,0,0l1,1l1,1c0.3,0.3,0.6,0.7,0.9,1l0.3,0.4c0.4,0.4,0.7,0.7,0.8,0.9l0,0
			c0.1,0.1,0.1,0.1,0.1,0.1l-6.3-6.7l0,0C1640.2,1311.6,1640.2,1311.7,1640.3,1311.8z"/>
		<path fill="#FDBA50" d="M1646.5,1318.3C1646.5,1318.3,1646.6,1318.3,1646.5,1318.3L1646.5,1318.3l205.3,216.8v0L1646.5,1318.3z"/>
		<path fill="#FFFFFF" d="M1841.9,1485.1c-0.2,1.8-0.3,3.6-0.4,5.4l276.8-77.9v-5.3L1841.9,1485.1z"/>
		<path fill="#FFFFFF" d="M1841.8,1499.7c0.1,1.7,0.3,3.4,0.6,5.1l276-77.7v-5.3L1841.8,1499.7z"/>
		<path fill="#FFFFFF" d="M1842.7,1506.7c0.3,1.7,0.6,3.3,1,5l274.7-77.3v-5.3L1842.7,1506.7z"/>
		<path fill="#FFFFFF" d="M1846,1520.4c0.5,1.6,1.1,3.2,1.6,4.8l270.7-76.2v-5.3L1846,1520.4z"/>
		<path fill="#FFFFFF" d="M1841.5,1492.5c0,1.7,0,3.5,0.1,5.2l276.7-77.9v-5.3L1841.5,1492.5z"/>
		<path fill="#FFFFFF" d="M1844.1,1513.6c0.4,1.6,0.8,3.3,1.3,4.9l272.9-76.8v-5.3L1844.1,1513.6z"/>
		<path fill="#FFFFFF" d="M1851.8,1454.8c-5.5,9.9-8.7,19.8-9.8,29.8c0.1-0.5,0.1-1.1,0.2-1.6l276.2-77.7v-5.3l-275.2,77.4
			c0.2-0.7,0.3-1.4,0.5-2.1l274.7-77.3v-5.3l-273.1,76.8c0.2-0.7,0.5-1.5,0.8-2.2l272.3-76.6v-5.3l-269.9,75.9
			c0.4-0.8,0.7-1.5,1.1-2.3l268.8-75.6v-3.6L1851.8,1454.8z"/>
		<path fill="#FFFFFF" d="M2118.4,1460.1v-1.8l-267.3,75.2c-0.3-0.6-0.5-1.2-0.8-1.8l268.1-75.4v-5.3l-270,76
			c-0.1-0.1-0.1-0.3-0.2-0.4c1.1,2.8,2.3,5.7,3.6,8.5l0,0v0v0h0L2118.4,1460.1z"/>
		<polygon fill="#FDBA50" points="2118.4,1451 2118.4,1451 2118.4,1456.3 2118.4,1456.3 2118.4,1458.3 2118.4,1458.3 2118.4,1460.1 
			1851.8,1535.1 1851.8,1535.1 2126.4,1457.8 2126.4,1457.8 2126.4,1457.8 2122,1453.1 2118.4,1449.3 2118.4,1449.3 		"/>
		<path fill="#FDBA50" d="M1646.6,1233.9L1646.6,1233.9l205.2,216.8l274.6-77.3l-211.6-223.5l-274.6,77.3L1646.6,1233.9z
			 M1858.6,1409.8l-38.9-41.1l211.7-53.7l34.5,36.5L1858.6,1409.8z"/>
		<polygon fill="#FED697" points="1819.7,1368.6 1858.6,1409.8 2065.9,1351.4 2031.4,1315 		"/>
		<path fill="#E6E7E8" d="M1849.6,1459.1c-0.4,0.8-0.7,1.5-1.1,2.3l269.9-75.9v0v-2l0,0L1849.6,1459.1z"/>
		<path fill="#E6E7E8" d="M1846,1467.4c-0.3,0.7-0.5,1.5-0.8,2.2l273.1-76.8l0,0v-2l0,0L1846,1467.4z"/>
		<path fill="#E6E7E8" d="M1843.6,1475.3c-0.2,0.7-0.3,1.4-0.5,2.1l275.2-77.4l0,0v-2v0L1843.6,1475.3z"/>
		<path fill="#E6E7E8" d="M1842.2,1483c-0.1,0.5-0.1,1.1-0.2,1.6c0,0.2,0,0.3,0,0.5l0,0l276.4-77.8l0,0v-2v0L1842.2,1483z"/>
		<path fill="#E6E7E8" d="M1841.6,1490.5L1841.6,1490.5c0,0.7,0,1.3,0,2h0l276.8-77.9l0,0v-2l0,0L1841.6,1490.5z"/>
		<path fill="#E6E7E8" d="M1841.7,1497.7L1841.7,1497.7c0,0.7,0.1,1.3,0.1,2l0,0l276.6-77.8l0,0v-2l0,0L1841.7,1497.7z"/>
		<path fill="#E6E7E8" d="M1842.4,1504.8L1842.4,1504.8c0.1,0.6,0.2,1.3,0.3,1.9l0,0l275.7-77.6l0,0v-2l0,0L1842.4,1504.8z"/>
		<path fill="#E6E7E8" d="M1843.7,1511.7L1843.7,1511.7c0.1,0.6,0.3,1.3,0.4,1.9h0l274.2-77.2l0,0v-2l0,0L1843.7,1511.7z"/>
		<path fill="#E6E7E8" d="M1845.5,1518.5L1845.5,1518.5c0.2,0.6,0.4,1.2,0.6,1.8h0l272.3-76.6v0v-2l0,0L1845.5,1518.5z"/>
		<path fill="#E6E7E8" d="M1847.7,1525.2L1847.7,1525.2c0.2,0.5,0.3,0.9,0.5,1.4c0.1,0.1,0.1,0.3,0.2,0.4l270-76v0v-1.7v0v-0.3l0,0
			L1847.7,1525.2z"/>
		<path fill="#E6E7E8" d="M1850.3,1531.7c0.3,0.6,0.5,1.2,0.8,1.8l267.3-75.2l0,0v-2l0,0L1850.3,1531.7z"/>
	</g>
	<g>
		<path fill="#029C49" d="M1514.3,1633.1c-130.6-28.7-222.8,26.9-258.8,62.8l-0.1,1.1l-1-0.1l0,0h0l-1-0.1l0-0.2
			c-37.2-9.9-75.6-9.3-117.1-9.3c-47.9,0-115.8,9.8-152.8,36.8l-122.7-272.9l2.5-8.5l0.2-0.7l-18,3v13.7l134,279.8
			c0,0,55.4-66.5,278.6-32.3c0,0,91.2-101.7,263.4-55.8l7.4-15.7l-12.9-9.8L1514.3,1633.1z"/>
		<path fill="#E6E7E8" d="M1451,1569c-70.7,0-142.7,29.3-191.9,79.1l0.2,0.6l-0.6,7.7c23.5-23.5,51.4-42,82.9-55.2
			c26.4-11,55.4-18.3,86.3-21.8c46.6-5.2,84.1-0.3,98.6,2.2l2.5-10.6C1512,1567.3,1468.6,1569,1451,1569z"/>
		<path fill="#E6E7E8" d="M1428.2,1581.4c-30.7,3.4-59.6,10.7-85.8,21.6c-32.1,13.4-60.3,32.4-83.9,56.4l-0.5,6
			c23-22.9,50.5-41.1,81.9-54c26.1-10.7,55-17.9,85.9-21.2c47-5.1,84.8,0,98.2,2.3l2.1-9C1511.6,1581.1,1474.4,1576.2,1428.2,1581.4
			z"/>
		<path fill="#E6E7E8" d="M989.2,1709.2c32.2-23.1,81.3-38.4,134.9-42c50.9-3.4,99.4,4.2,130.1,20.6l0.7-8.7
			c-30.4-16.5-78.3-24.3-128.3-20.8c-52.6,3.7-101.1,19.1-133,42.3l-0.8-1l-0.7,1.8l-2.9,7.8L989.2,1709.2z"/>
		<path fill="#E6E7E8" d="M1128.8,1645.9c49.8-3.6,96,3.9,127.1,20.5l0.6-6.9c-30.9-16.8-76.5-24.7-125.3-21.7
			c-50.7,3.2-98.1,18.2-129.9,41.4l-0.6-0.8l-0.8,2.2l-2.8,7.4C1029.4,1664.9,1077.3,1649.6,1128.8,1645.9z"/>
		<path fill="#E6E7E8" d="M1126.5,1656.3c50-3.5,97.9,4.2,128.6,20.6l0.7-8.4c-30.8-16.7-76.9-24.3-126.8-20.7
			c-51.6,3.7-99.5,19.1-131.5,42.3l-0.8-1l-0.7,1.8l-2.8,7.5C1025.5,1675.3,1073.9,1659.9,1126.5,1656.3z"/>
		<path fill="#E6E7E8" d="M1004.6,1668l-3.3,8.9c32.5-23.2,78.6-37.8,129.8-41c48.7-3,94.3,4.8,125.5,21.5l0.7-8.4l-0.3-0.9
			C1193.3,1614.1,1073,1618.3,1004.6,1668z"/>
		<path fill="#E6E7E8" d="M1423.8,1603.3c-47.6,5.4-115.1,22.9-166.9,75.6l-0.7,8.2c25.4-25.5,55.2-45,88.5-58
			c27.3-10.6,57-16.9,88.3-18.8c37.7-2.2,70,2.8,85.3,6l2.6-11.1C1505.8,1602.3,1468.3,1598.2,1423.8,1603.3z"/>
		<path fill="#E6E7E8" d="M1432.5,1612.3c-31,1.9-60.4,8.2-87.4,18.7c-33.6,13.2-63.6,33-89.1,59l-0.5,5.9
			c36-36,128.2-91.6,258.8-62.8l1.9-8.1l1.6-6.7C1503,1615.1,1471.3,1609.9,1432.5,1612.3z"/>
		<path fill="#E6E7E8" d="M1426,1592.2c-30.7,3.3-59.4,10.4-85.3,21.1c-31.9,13.1-59.8,31.6-82.9,55.2l-0.6,7.5
			c52-51.9,119-69.2,166.4-74.6c44.7-5.1,82.5-0.9,97.8,2l2.1-9C1510.1,1592.1,1472.7,1587.1,1426,1592.2z"/>
		<path fill="#E6E7E8" d="M1124.2,1669.1c-53.7,3.6-102.8,19-134.7,42.2l-0.7-1l-0.5,1.2l-4.7,12.6c37-26.9,105-36.8,152.8-36.8
			c41.5,0,79.9-0.6,117.1,9.3l0.6-6.9C1223.6,1673.4,1175.2,1665.6,1124.2,1669.1z"/>
		<path fill="#FFFFFF" d="M1257,1648.2L1153,1391.7l1.8-0.7l104.3,257.2c49.2-49.8,121.2-79.1,191.9-79.1c17.6,0,61-1.8,78.1,2
			l-139.3-245.3c-27.9-8-159.6-24.9-235.9,65.7c-18.7-20.4-167.6-89.3-275.2,0l126,276.6C1073,1618.3,1193.3,1614.1,1257,1648.2z"/>
		<path fill="#DADBDB" d="M993.2,1698.4l2.8-7.5l-125.9-270.8l-2.5,8.6l125.5,269.9C993.1,1698.5,993.2,1698.4,993.2,1698.4z"/>
		<polygon fill="#DADBDB" points="992.2,1701.2 866.8,1431.4 864.2,1440 989.3,1709 		"/>
		<path fill="#DADBDB" d="M997.1,1688l2.8-7.4l-126.4-271.9l-2.5,8.6l125.9,270.9C997,1688.1,997.1,1688.1,997.1,1688z"/>
		<path fill="#DADBDB" d="M1001.3,1676.9l3.3-8.9l-126-276.6l-4.3,14.6l126.2,271.5C1000.8,1677.2,1001.1,1677.1,1001.3,1676.9z"/>
		<polygon fill="#DADBDB" points="863.4,1442.8 860.9,1451.3 983.6,1724.1 988.3,1711.5 		"/>
		<path fill="#D1D3D4" d="M988.3,1711.5l0.5-1.2l0.7,1c31.9-23.2,81-38.6,134.7-42.2c51-3.5,99.4,4.3,129.8,20.7l-0.6,6.9l0,0.2
			l1,0.1h0l0,0l1,0.1l0.1-1.1l0.5-5.9c25.5-26,55.5-45.9,89.1-59c27-10.6,56.4-16.9,87.4-18.7c38.8-2.3,70.5,2.9,85.3,6.1l0.5-2
			c-15.4-3.3-47.7-8.3-85.3-6c-31.3,1.8-61,8.2-88.3,18.8c-33.3,13-63.1,32.5-88.5,58l0.7-8.2c51.8-52.7,119.3-70.2,166.9-75.6
			c44.5-5,82.1-0.9,97.2,1.9l0.4-1.9c-15.3-2.9-53.1-7.1-97.8-2c-47.4,5.4-114.4,22.7-166.4,74.6l0.6-7.5
			c23.1-23.5,51-42.1,82.9-55.2c26-10.7,54.7-17.7,85.3-21.1c46.7-5.1,84.1-0.1,97.6,2.2l0.4-1.9c-13.5-2.3-51.2-7.4-98.2-2.3
			c-30.8,3.3-59.7,10.5-85.9,21.2c-31.4,12.9-58.9,31-81.9,54l0.5-6c23.6-24,51.9-43,83.9-56.4c26.2-10.9,55-18.2,85.8-21.6
			c46.2-5.2,83.5-0.3,97.9,2.2l0.4-1.9c-14.5-2.5-52-7.4-98.6-2.2c-30.9,3.4-59.9,10.8-86.3,21.8c-31.6,13.2-59.5,31.8-82.9,55.2
			l0.6-7.7l-0.2-0.6L1154.7,1391l-1.8,0.7l104.1,256.5l0.3,0.9l-0.7,8.4c-31.2-16.7-76.9-24.5-125.5-21.5
			c-51.3,3.2-97.3,17.7-129.8,41c-0.2,0.2-0.5,0.4-0.7,0.5l-126.2-271.5l-0.8,2.8l126.4,271.9l0.8-2.2l0.6,0.8
			c31.8-23.1,79.2-38.2,129.9-41.4c48.7-3,94.3,4.9,125.3,21.7l-0.6,6.9c-31.1-16.6-77.3-24.1-127.1-20.5
			c-51.5,3.7-99.5,19-131.7,42.2c-0.1,0-0.1,0.1-0.2,0.1L871,1417.3l-0.8,2.8L996,1690.9l0.7-1.8l0.8,1
			c32-23.2,79.9-38.7,131.5-42.3c49.9-3.6,96,4,126.8,20.7l-0.7,8.4c-30.7-16.4-78.6-24.1-128.6-20.6c-52.5,3.7-101,19-133.2,42.1
			c-0.1,0-0.1,0.1-0.2,0.1l-125.5-269.9l-0.8,2.8l125.4,269.8l0.7-1.8l0.8,1c31.9-23.2,80.4-38.6,133-42.3
			c50-3.5,97.9,4.3,128.3,20.8l-0.7,8.7c-30.8-16.3-79.2-24-130.1-20.6c-53.6,3.6-102.7,18.9-134.9,42l0.1-0.2l-125-269l-0.6,2.1
			l-0.2,0.7L988.3,1711.5z"/>
	</g>
</g>
</svg>
